P3
# Created by GIMP version 2.10.36 PNM plug-in
16 16
255
143
33
33
142
32
32
141
32
32
142
32
32
143
33
33
142
32
32
141
32
32
143
34
34
141
32
32
143
33
33
142
32
32
143
34
34
142
32
32
143
33
33
143
33
33
143
34
34
142
32
32
143
33
33
142
32
32
143
33
33
141
32
32
142
32
32
141
32
32
143
34
34
143
33
33
142
32
32
143
34
34
142
32
32
143
34
34
141
32
32
142
32
32
141
32
32
140
32
32
143
34
34
142
32
32
143
33
33
142
32
32
143
34
34
141
32
32
142
32
32
143
33
33
143
33
33
142
32
32
143
33
33
141
32
32
143
34
34
142
32
32
142
32
32
142
32
32
141
32
32
143
33
33
142
32
32
143
34
34
142
32
32
142
32
32
142
32
32
142
32
32
142
32
32
143
34
34
143
33
33
142
32
32
141
32
32
142
32
32
142
32
32
142
32
32
143
34
34
142
32
32
142
32
32
143
34
34
142
32
32
143
33
33
143
33
33
142
32
32
141
32
32
142
32
32
143
33
33
143
35
35
143
34
34
143
33
33
143
33
33
142
32
32
143
33
33
143
34
34
143
33
33
142
32
32
143
33
33
143
33
33
143
33
33
143
34
34
142
32
32
141
32
32
143
33
33
143
33
33
142
32
32
143
35
35
143
34
34
143
33
33
142
32
32
143
33
33
142
32
32
142
32
32
141
32
32
143
34
34
142
32
32
143
34
34
143
34
34
142
32
32
142
32
32
143
33
33
142
32
32
140
32
32
143
33
33
140
32
32
143
34
34
143
33
33
143
34
34
143
33
33
141
32
32
140
32
32
143
33
33
142
32
32
141
32
32
143
34
34
142
32
32
143
33
33
143
34
34
143
33
33
142
32
32
142
32
32
141
32
32
143
33
33
143
33
33
142
32
32
143
35
35
143
34
34
143
35
35
143
34
34
143
33
33
142
32
32
142
32
32
141
32
32
142
32
32
142
32
32
143
33
33
143
35
35
143
34
34
143
34
34
142
32
32
142
32
32
143
33
33
142
32
32
143
33
33
142
32
32
142
32
32
142
32
32
143
35
35
143
33
33
143
34
34
141
32
32
143
34
34
142
32
32
143
33
33
142
32
32
143
33
33
143
33
33
143
35
35
141
32
32
142
32
32
141
32
32
143
34
34
143
34
34
143
34
34
143
33
33
143
33
33
143
33
33
142
32
32
143
34
34
141
32
32
143
35
35
142
32
32
143
34
34
143
34
34
143
33
33
143
33
33
143
33
33
143
33
33
142
32
32
143
34
34
143
33
33
142
32
32
142
32
32
143
34
34
143
33
33
143
35
35
143
34
34
143
33
33
142
32
32
143
33
33
143
33
33
141
32
32
142
32
32
143
34
34
142
32
32
143
33
33
141
32
32
143
33
33
141
32
32
143
34
34
143
33
33
143
33
33
142
32
32
143
34
34
142
32
32
143
34
34
143
34
34
143
33
33
142
32
32
142
32
32
142
32
32
142
32
32
141
32
32
143
33
33
143
33
33
143
35
35
143
33
33
142
32
32
143
34
34
142
32
32
143
34
34
143
33
33
143
33
33
143
33
33
142
32
32
143
35
35
143
35
35
142
32
32
141
32
32
142
32
32
142
32
32
142
32
32
143
33
33
143
33
33
143
34
34
143
34
34
141
32
32
143
33
33
143
33
33
143
33
33
143
33
33
142
32
32
143
33
33
142
32
32
142
32
32
140
32
32
143
33
33
142
32
32
