P3
# Created by GIMP version 2.10.36 PNM plug-in
16 16
255
93
168
24
95
170
25
96
170
26
95
170
25
94
169
24
94
168
24
94
169
24
95
170
25
95
170
25
94
169
24
93
168
24
93
167
24
93
167
24
94
169
24
94
169
24
94
169
24
94
169
24
94
169
24
94
169
24
93
168
24
94
169
24
94
169
24
94
169
24
95
170
26
93
167
24
95
170
26
95
170
25
93
168
24
94
169
24
94
169
24
93
167
24
93
168
24
93
168
24
94
169
24
93
167
24
95
170
25
93
167
24
96
170
26
94
169
24
95
170
25
95
170
25
93
167
24
93
167
24
94
169
24
93
168
24
93
167
24
95
170
25
94
168
24
95
170
25
96
170
27
94
169
24
93
168
24
94
169
24
94
169
24
95
170
25
96
170
27
93
168
24
95
170
25
95
170
25
93
167
24
94
169
24
94
169
24
95
170
25
95
170
26
94
169
24
94
169
24
96
170
27
95
170
25
94
169
24
95
170
26
94
169
24
94
168
24
94
169
24
95
170
25
94
169
24
93
168
24
95
170
25
95
170
25
93
168
24
93
168
24
93
167
24
93
168
24
93
168
24
94
169
24
93
167
24
93
168
24
94
169
24
93
168
24
93
167
24
95
170
25
93
168
24
94
168
24
94
169
24
93
167
24
96
170
26
93
168
24
94
169
24
93
167
24
94
169
24
94
168
24
93
167
24
95
170
26
95
170
26
95
170
25
94
168
24
93
167
24
95
170
25
95
170
25
93
168
24
95
170
25
95
170
25
93
167
24
94
169
24
93
167
24
96
170
26
93
168
24
94
169
24
95
170
26
94
169
24
93
168
24
93
167
24
95
170
25
93
167
24
93
167
24
95
170
25
95
170
25
95
170
25
93
167
24
93
167
24
93
167
24
94
169
24
94
168
24
93
167
24
95
170
25
95
170
25
96
170
26
93
168
24
93
168
24
96
170
27
95
170
25
95
170
25
93
167
24
96
170
27
94
169
24
95
170
25
93
168
24
94
169
24
96
170
26
95
170
25
95
170
25
96
170
26
94
169
24
93
168
24
96
170
26
94
169
24
95
170
25
95
170
25
96
170
26
94
168
24
96
170
26
93
168
24
94
168
24
94
169
24
95
170
25
95
170
25
94
169
24
94
169
24
95
170
25
93
168
24
95
170
25
94
169
24
95
170
25
95
170
25
94
169
24
94
169
24
93
167
24
95
170
25
93
168
24
95
170
25
95
170
25
94
169
24
93
167
24
93
168
24
94
169
24
95
170
25
93
167
24
93
167
24
93
168
24
93
167
24
94
169
24
94
168
24
94
169
24
93
168
24
95
170
25
94
169
24
94
169
24
95
170
25
95
170
25
94
169
24
96
170
26
93
168
24
96
170
27
94
169
24
93
168
24
94
169
24
94
169
24
94
169
24
93
168
24
93
168
24
95
170
26
94
169
24
95
170
25
93
168
24
96
170
27
93
167
24
94
169
24
93
167
24
93
167
24
94
169
24
95
170
25
93
167
24
93
168
24
94
169
24
96
170
26
96
170
27
93
168
24
93
168
24
94
168
24
93
168
24
95
170
25
93
168
24
93
168
24
93
168
24
95
170
25
93
167
24
94
169
24
95
170
25
95
170
25
95
170
25
96
170
27
93
167
24
93
167
24
93
168
24
94
169
24
94
169
24
93
168
24
93
167
24
93
168
24
95
170
25
93
168
24
94
169
24
93
167
24
94
169
24
95
170
25
95
170
25
95
170
25
