P3
# Created by GIMP version 2.10.36 PNM plug-in
16 16
255
101
32
157
100
31
156
100
31
156
100
31
156
101
32
157
100
31
156
100
31
156
99
31
155
101
33
157
101
32
157
101
33
157
100
31
156
101
32
157
101
33
157
101
33
157
101
32
157
101
32
157
101
32
157
101
32
157
101
33
157
100
31
155
100
31
156
101
33
157
100
31
156
99
31
155
100
31
156
100
31
156
99
31
155
100
31
156
101
33
157
101
32
157
100
31
156
101
32
157
100
31
155
101
32
157
99
31
155
100
31
156
100
31
156
100
31
156
100
31
156
100
31
156
101
32
157
100
31
156
101
32
157
101
32
157
100
31
156
101
32
157
101
32
157
101
32
157
100
31
156
99
31
155
100
31
156
101
32
157
101
33
157
100
31
156
100
31
156
101
33
157
101
33
157
99
31
155
101
32
157
101
32
157
101
32
157
101
32
157
99
31
155
101
32
157
101
33
157
101
32
157
101
32
157
100
31
156
100
31
156
101
32
157
100
31
156
99
31
155
99
31
155
100
31
155
100
31
156
101
32
157
101
32
157
101
32
157
101
32
157
100
31
156
101
32
157
101
32
157
101
32
157
101
33
157
101
32
157
101
32
157
99
31
155
100
31
156
101
32
157
101
32
157
99
31
155
100
31
156
100
31
156
100
31
156
100
31
156
101
33
157
101
33
157
101
32
157
100
31
156
100
31
156
100
31
156
101
32
157
101
32
157
101
33
157
100
31
156
100
31
156
100
31
156
101
32
157
100
31
156
101
32
157
100
31
156
101
33
157
100
31
156
101
33
157
101
32
157
99
31
155
101
32
157
101
32
157
100
31
156
101
32
157
100
31
156
101
32
157
101
32
157
101
33
157
101
33
157
100
31
156
101
33
157
101
33
157
100
31
156
99
31
155
100
31
156
100
31
155
100
31
156
100
31
156
99
31
155
101
32
157
100
31
156
101
32
157
100
31
155
100
31
155
99
31
155
99
31
155
101
33
157
101
32
157
100
31
156
100
31
156
101
32
157
101
32
157
101
32
157
101
32
157
101
32
157
100
31
156
100
31
156
99
31
155
101
32
157
100
31
156
101
32
157
101
32
157
100
31
156
101
32
157
100
31
155
100
31
156
101
33
157
100
31
156
101
32
157
101
32
157
101
32
157
100
31
156
101
32
157
100
31
156
100
31
156
101
32
157
100
31
156
100
31
156
100
31
156
99
31
155
100
31
156
100
31
156
101
32
157
100
31
156
100
31
156
100
31
156
101
33
157
99
31
155
101
32
157
101
33
157
100
31
156
101
32
157
100
31
156
100
31
156
100
31
156
100
31
155
100
31
156
100
31
156
101
32
157
100
31
156
101
32
157
101
32
157
99
31
155
100
31
156
101
32
157
101
32
157
101
32
157
101
32
157
101
33
157
101
32
157
100
31
156
99
31
155
100
31
156
100
31
156
100
31
156
101
32
157
101
32
157
101
32
157
101
33
157
100
31
156
101
32
157
101
32
157
100
31
156
100
31
156
101
32
157
101
32
157
100
31
156
101
32
157
100
31
156
99
31
155
100
31
156
101
32
157
101
32
157
101
32
157
101
33
157
100
31
156
101
32
157
101
32
157
100
31
156
100
31
156
101
33
157
99
31
155
101
32
157
100
31
156
101
32
157
100
31
156
101
32
157
101
32
157
101
32
157
100
31
156
101
32
157
100
31
156
101
33
157
101
32
157
100
31
156
101
32
157
101
32
157
101
32
157
100
31
156
