P3
# Created by GIMP version 2.10.36 PNM plug-in
16 16
255
21
119
136
21
119
136
21
119
136
22
120
137
21
118
135
21
119
136
21
119
135
21
119
136
22
120
137
22
120
137
21
119
136
21
119
136
21
119
136
22
120
137
21
118
135
22
120
137
21
119
136
21
118
135
21
119
135
21
119
136
22
120
137
21
119
136
22
120
137
22
120
137
22
120
137
21
119
136
21
119
136
21
119
136
21
119
136
22
120
137
22
120
137
21
118
135
21
119
136
22
120
137
22
120
137
21
119
136
22
120
137
22
120
137
21
119
136
21
119
136
21
119
136
21
118
135
21
119
136
21
119
136
21
119
136
21
119
136
22
120
137
21
118
135
22
120
137
21
119
136
21
118
135
22
120
137
22
120
137
22
120
137
21
119
136
23
120
137
21
119
136
21
118
135
22
120
137
22
120
137
23
120
137
21
119
136
22
120
137
22
120
137
23
120
137
21
119
136
21
119
136
21
119
136
21
119
136
21
119
136
23
120
137
21
119
136
21
119
136
22
120
137
22
120
137
21
119
136
21
119
136
21
119
136
21
119
136
21
118
135
21
119
136
21
119
136
21
118
135
23
120
137
21
119
136
21
119
136
21
118
135
22
120
137
21
119
135
22
120
137
21
119
136
22
120
137
21
119
136
23
120
137
22
120
137
21
119
136
22
120
137
22
120
137
22
120
137
21
118
135
22
120
137
21
119
136
21
119
136
21
118
135
22
120
137
21
119
136
21
118
135
23
120
137
22
120
137
21
118
135
22
120
137
22
120
137
23
120
137
21
119
135
21
119
136
22
120
137
21
119
136
21
119
135
21
119
136
21
119
136
21
118
135
21
119
135
21
119
136
21
118
135
22
120
137
21
119
136
22
120
137
22
120
137
21
119
136
21
118
135
22
120
137
21
119
136
21
119
136
21
119
136
21
119
136
21
118
135
22
120
137
21
118
135
22
120
137
21
119
136
21
118
135
21
119
136
21
118
135
21
119
136
21
118
135
23
120
137
21
118
135
21
119
136
21
119
136
21
119
136
21
119
135
21
119
136
21
119
136
22
120
137
21
118
135
23
120
137
21
118
135
22
120
137
22
120
137
21
119
136
22
120
137
22
120
137
22
120
137
21
119
136
21
119
136
22
120
137
21
119
136
21
118
135
23
120
137
21
119
136
21
119
136
21
119
136
23
120
137
21
118
135
23
120
137
22
120
137
21
119
136
22
120
137
21
119
136
21
119
136
21
119
135
22
120
137
22
120
137
22
120
137
21
119
136
21
119
136
21
118
135
22
120
137
21
119
136
21
119
136
23
120
137
22
120
137
21
119
136
21
118
135
21
118
135
21
119
136
21
118
135
21
119
136
21
118
135
22
120
137
21
119
136
21
119
136
21
118
135
21
118
135
21
119
136
22
120
137
22
120
137
21
119
136
22
120
137
21
119
136
22
120
137
22
120
137
21
118
135
22
120
137
23
120
137
22
120
137
22
120
137
21
119
136
22
120
137
22
120
137
21
119
136
21
119
136
21
119
136
23
120
137
22
120
137
21
119
136
21
119
136
21
118
135
22
120
137
22
120
137
21
119
136
21
119
136
21
119
136
21
118
135
21
118
135
22
120
137
22
120
137
22
120
137
21
119
136
21
119
136
22
120
137
21
118
135
21
119
136
21
119
136
22
120
137
21
119
136
21
119
136
21
119
136
22
120
137
21
118
135
22
120
137
22
120
137
21
118
135
22
120
137
21
119
136
21
119
136
