P3
# Created by GIMP version 2.10.36 PNM plug-in
16 16
255
178
180
176
234
236
222
235
234
227
238
238
230
236
237
226
184
187
180
237
234
229
219
221
211
224
219
214
228
234
228
255
255
255
255
255
255
255
255
255
233
231
231
235
237
228
177
182
171
242
236
228
231
235
227
217
219
208
219
212
214
220
210
214
230
239
227
230
235
228
234
224
227
231
238
227
232
237
222
231
234
230
235
236
228
234
239
223
236
235
228
241
232
222
232
234
227
214
217
217
232
240
231
231
230
228
237
239
229
235
234
224
226
218
212
235
236
229
221
214
208
220
218
212
218
214
216
231
236
227
182
180
176
232
234
229
229
235
226
217
214
215
219
217
209
238
234
227
255
255
255
227
238
225
177
184
177
65
60
57
21
25
23
32
25
34
60
54
58
237
229
228
241
234
227
234
229
228
238
240
229
232
237
224
237
236
225
218
219
215
234
233
229
234
228
227
235
234
225
182
180
176
182
180
176
221
225
214
62
59
53
61
59
58
32
25
34
62
62
59
229
232
227
217
216
214
213
221
208
219
218
212
224
214
211
66
60
57
218
214
208
58
58
58
65
65
62
237
237
224
255
255
255
255
255
255
240
234
225
234
234
230
255
255
255
255
255
255
235
234
230
255
255
255
255
255
255
237
234
228
60
59
61
29
24
26
26
28
20
61
61
58
224
218
206
218
213
206
225
230
224
232
235
227
187
184
176
234
229
220
219
214
211
210
221
211
217
219
212
239
234
225
234
231
226
180
179
179
239
231
227
233
231
228
235
234
229
231
233
225
186
179
176
255
255
255
236
234
222
234
229
226
219
220
212
222
218
213
230
232
227
255
255
255
191
185
176
230
235
227
234
239
231
255
255
255
221
216
211
217
221
212
215
214
216
220
209
212
218
220
210
222
211
213
255
255
255
255
255
255
232
238
230
241
234
231
255
255
255
234
223
223
234
236
227
240
237
230
237
226
231
227
233
229
236
241
228
210
218
212
221
222
213
236
236
220
227
229
228
233
234
227
226
232
226
222
218
213
222
218
213
177
187
178
223
218
212
182
186
176
217
217
201
214
218
214
236
233
228
233
241
232
233
239
222
240
234
232
233
230
226
183
187
176
236
240
228
218
215
207
219
217
211
223
217
212
182
180
176
236
239
231
236
239
231
236
239
231
236
234
222
255
255
255
255
255
255
234
232
225
228
227
225
255
255
255
234
232
232
233
234
227
235
232
227
230
231
227
227
237
224
233
233
226
188
182
179
176
185
177
176
185
177
237
235
228
237
235
227
213
225
212
221
222
211
176
185
177
180
178
178
221
218
211
217
223
220
227
233
232
255
255
255
255
255
255
236
234
232
215
218
212
219
218
213
215
227
212
234
234
227
234
235
226
231
233
223
232
234
232
235
230
224
234
229
226
233
233
228
62
62
62
66
64
57
58
61
58
219
216
209
215
220
210
236
242
223
238
235
229
234
235
219
230
237
232
181
179
174
216
218
212
233
236
228
235
228
225
232
228
226
64
59
57
62
57
64
31
30
24
27
26
19
25
24
28
63
60
58
54
63
58
234
234
230
233
234
224
255
255
255
255
255
255
255
255
255
237
231
229
219
220
212
58
58
62
60
60
57
186
179
176
218
221
218
29
34
24
28
23
27
232
230
229
235
234
230
234
235
229
59
60
57
217
223
213
218
220
213
226
220
216
237
234
230
234
234
229
237
237
233
215
209
211
224
221
213
220
214
215
255
255
255
255
255
255
244
239
227
