P3
# Created by GIMP version 2.10.36 PNM plug-in
16 16
255
255
255
255
255
255
255
255
255
255
255
255
255
255
255
255
255
255
255
255
255
255
255
255
255
255
255
255
255
255
255
255
255
255
255
255
255
255
255
255
255
255
255
255
255
255
255
255
255
255
255
255
83
83
83
83
83
83
83
83
83
83
83
83
83
83
83
83
83
83
83
83
83
83
83
83
83
83
83
83
83
83
83
83
83
83
83
83
83
83
83
83
83
83
255
255
255
255
255
255
83
83
83
217
217
217
216
216
216
217
217
217
217
217
217
217
217
217
217
217
217
216
216
216
217
217
217
217
217
217
218
218
218
219
219
219
217
217
217
83
83
83
255
255
255
255
255
255
83
83
83
218
218
218
210
210
210
211
211
211
211
211
211
209
209
209
211
211
211
211
211
211
211
211
211
211
211
211
211
211
211
212
212
212
217
217
217
83
83
83
255
255
255
255
255
255
83
83
83
217
217
217
212
212
212
218
218
218
219
219
219
219
219
219
219
219
219
218
218
218
219
219
219
218
218
218
219
219
219
211
211
211
217
217
217
83
83
83
255
255
255
255
255
255
83
83
83
217
217
217
210
210
210
219
219
219
217
217
217
218
218
218
217
217
217
218
218
218
217
217
217
218
218
218
219
219
219
211
211
211
217
217
217
83
83
83
255
255
255
255
255
255
83
83
83
217
217
217
210
210
210
219
219
219
217
217
217
211
211
211
212
212
212
211
211
211
211
211
211
217
217
217
218
218
218
210
210
210
217
217
217
83
83
83
255
255
255
255
255
255
83
83
83
217
217
217
211
211
211
219
219
219
218
218
218
210
210
210
219
219
219
219
219
219
211
211
211
217
217
217
218
218
218
211
211
211
217
217
217
83
83
83
255
255
255
255
255
255
83
83
83
217
217
217
214
214
214
219
219
219
217
217
217
211
211
211
219
219
219
219
219
219
211
211
211
217
217
217
219
219
219
210
210
210
218
218
218
83
83
83
255
255
255
255
255
255
83
83
83
216
216
216
211
211
211
218
218
218
217
217
217
211
211
211
211
211
211
211
211
211
211
211
211
218
218
218
219
219
219
211
211
211
217
217
217
83
83
83
255
255
255
255
255
255
83
83
83
217
217
217
211
211
211
219
219
219
217
217
217
218
218
218
217
217
217
217
217
217
217
217
217
218
218
218
219
219
219
212
212
212
217
217
217
83
83
83
255
255
255
255
255
255
83
83
83
217
217
217
211
211
211
220
220
220
219
219
219
218
218
218
219
219
219
219
219
219
220
220
220
219
219
219
219
219
219
211
211
211
217
217
217
83
83
83
255
255
255
255
255
255
83
83
83
217
217
217
210
210
210
211
211
211
212
212
212
211
211
211
211
211
211
211
211
211
211
211
211
212
212
212
213
213
213
212
212
212
217
217
217
83
83
83
255
255
255
255
255
255
83
83
83
217
217
217
217
217
217
217
217
217
217
217
217
218
218
218
216
216
216
217
217
217
215
215
215
217
217
217
217
217
217
217
217
217
217
217
217
83
83
83
255
255
255
255
255
255
83
83
83
83
83
83
83
83
83
83
83
83
83
83
83
83
83
83
83
83
83
83
83
83
83
83
83
83
83
83
83
83
83
83
83
83
83
83
83
83
83
83
255
255
255
255
255
255
255
255
255
255
255
255
255
255
255
255
255
255
255
255
255
255
255
255
255
255
255
255
255
255
255
255
255
255
255
255
255
255
255
255
255
255
255
255
255
255
255
255
255
255
255
