P3
# Created by GIMP version 2.10.36 PNM plug-in
16 16
255
255
255
255
56
56
56
110
110
110
110
110
110
122
122
122
112
112
112
121
121
121
83
83
83
56
56
56
109
109
109
109
109
109
116
116
116
116
116
116
110
110
110
83
83
83
255
255
255
255
255
255
56
56
56
109
109
109
112
112
112
98
98
98
122
122
122
73
73
73
0
0
0
56
56
56
100
100
100
109
109
109
122
122
122
116
116
116
110
110
110
83
83
83
255
255
255
0
0
0
0
0
0
92
92
92
109
109
109
101
101
101
122
122
122
85
85
85
49
49
49
56
56
56
100
100
100
109
109
109
116
116
116
116
116
116
76
76
76
0
0
0
0
0
0
255
255
255
34
34
34
88
88
88
109
109
109
101
101
101
116
116
116
100
100
100
83
83
83
0
0
0
72
72
72
109
109
109
122
122
122
122
122
122
102
102
102
83
83
83
255
255
255
255
255
255
56
56
56
101
101
101
110
110
110
109
109
109
116
116
116
110
110
110
83
83
83
34
34
34
88
88
88
110
110
110
122
122
122
122
122
122
100
100
100
83
83
83
255
255
255
255
255
255
56
56
56
92
92
92
110
110
110
109
109
109
109
109
109
109
109
109
83
83
83
56
56
56
100
100
100
110
110
110
119
119
119
116
116
116
101
101
101
83
83
83
255
255
255
0
0
0
0
0
0
100
100
100
103
103
103
110
110
110
109
109
109
109
109
109
83
83
83
56
56
56
100
100
100
116
116
116
107
107
107
116
116
116
72
72
72
0
0
0
0
0
0
255
255
255
56
56
56
122
122
122
100
100
100
110
110
110
100
100
100
122
122
122
83
83
83
0
0
0
71
71
71
116
116
116
103
103
103
116
116
116
86
86
86
49
49
49
255
255
255
255
255
255
56
56
56
122
122
122
101
101
101
113
113
113
101
101
101
110
110
110
83
83
83
34
34
34
88
88
88
120
120
120
100
100
100
110
110
110
101
101
101
83
83
83
255
255
255
255
255
255
56
56
56
122
122
122
102
102
102
109
109
109
121
121
121
74
74
74
0
0
0
56
56
56
98
98
98
121
121
121
102
102
102
121
121
121
101
101
101
83
83
83
255
255
255
0
0
0
56
56
56
116
116
116
101
101
101
110
110
110
121
121
121
84
84
84
49
49
49
56
56
56
108
108
108
123
123
123
101
101
101
122
122
122
74
74
74
0
0
0
0
0
0
255
255
255
56
56
56
116
116
116
101
101
101
109
109
109
122
122
122
102
102
102
83
83
83
56
56
56
108
108
108
122
122
122
100
100
100
122
122
122
85
85
85
49
49
49
255
255
255
0
0
0
0
0
0
90
90
90
98
98
98
109
109
109
122
122
122
98
98
98
83
83
83
0
0
0
80
80
80
122
122
122
100
100
100
109
109
109
101
101
101
83
83
83
0
0
0
255
255
255
34
34
34
96
96
96
108
108
108
110
110
110
116
116
116
103
103
103
83
83
83
34
34
34
94
94
94
109
109
109
100
100
100
121
121
121
122
122
122
83
83
83
255
255
255
255
255
255
56
56
56
109
109
109
122
122
122
101
101
101
116
116
116
76
76
76
0
0
0
56
56
56
109
109
109
122
122
122
100
100
100
116
116
116
100
100
100
83
83
83
255
255
255
255
255
255
56
56
56
109
109
109
116
116
116
100
100
100
110
110
110
95
95
95
49
49
49
56
56
56
110
110
110
109
109
109
97
97
97
110
110
110
109
109
109
83
83
83
255
255
255
