P3
# Created by GIMP version 2.10.36 PNM plug-in
16 16
255
186
186
186
198
198
198
187
187
187
187
187
187
181
181
181
184
184
184
167
167
167
180
180
180
178
178
178
190
190
190
191
191
191
183
183
183
181
181
181
183
183
183
182
182
182
196
196
196
172
172
172
201
201
201
191
191
191
184
184
184
173
173
173
163
163
163
153
153
153
188
188
188
164
164
164
192
192
192
191
191
191
170
170
170
191
191
191
185
185
185
176
176
176
191
191
191
196
196
196
196
196
196
190
190
190
175
175
175
147
147
147
158
158
158
140
140
140
189
189
189
187
187
187
182
182
182
210
210
210
185
185
185
188
188
188
185
185
185
177
177
177
167
167
167
202
202
202
168
168
168
194
194
194
168
168
168
142
142
142
170
170
170
149
149
149
194
194
194
202
202
202
157
157
157
207
207
207
200
200
200
178
178
178
189
189
189
181
181
181
171
171
171
186
186
186
187
187
187
206
206
206
154
154
154
147
147
147
183
183
183
170
170
170
180
180
180
182
182
182
167
167
167
205
205
205
199
199
199
178
178
178
170
170
170
183
183
183
155
155
155
193
193
193
201
201
201
196
196
196
161
161
161
134
134
134
191
191
191
182
182
182
149
149
149
178
178
178
188
188
188
210
210
210
181
181
181
167
167
167
169
169
169
157
157
157
140
140
140
177
177
177
192
192
192
167
167
167
132
132
132
151
151
151
198
198
198
159
159
159
172
172
172
166
166
166
203
203
203
194
194
194
174
174
174
180
180
180
150
150
150
139
139
139
171
171
171
168
168
168
175
175
175
167
167
167
156
156
156
187
187
187
179
179
179
153
153
153
161
161
161
174
174
174
205
205
205
196
196
196
162
162
162
181
181
181
155
155
155
134
134
134
189
189
189
169
169
169
159
159
159
160
160
160
174
174
174
182
182
182
179
179
179
172
172
172
180
180
180
190
190
190
187
187
187
192
192
192
153
153
153
173
173
173
156
156
156
172
172
172
204
204
204
168
168
168
152
152
152
162
162
162
162
162
162
194
194
194
174
174
174
184
184
184
184
184
184
188
188
188
181
181
181
183
183
183
165
165
165
137
137
137
161
161
161
187
187
187
189
189
189
165
165
165
174
174
174
177
177
177
168
168
168
175
175
175
151
151
151
200
200
200
188
188
188
186
186
186
184
184
184
173
173
173
154
154
154
116
116
116
169
169
169
195
195
195
186
186
186
171
171
171
184
184
184
175
175
175
172
172
172
152
152
152
178
178
178
189
189
189
186
186
186
167
167
167
190
190
190
155
155
155
153
153
153
136
136
136
182
182
182
199
199
199
159
159
159
179
179
179
185
185
185
177
177
177
157
157
157
150
150
150
192
192
192
188
188
188
180
180
180
185
185
185
190
190
190
155
155
155
144
144
144
141
141
141
191
191
191
192
192
192
166
166
166
177
177
177
171
171
171
169
169
169
157
157
157
168
168
168
186
186
186
194
194
194
190
190
190
186
186
186
171
171
171
160
160
160
131
131
131
167
167
167
181
181
181
185
185
185
188
188
188
175
175
175
151
151
151
176
176
176
167
167
167
181
181
181
190
190
190
194
194
194
193
193
193
189
189
189
169
169
169
155
155
155
163
163
163
170
170
170
165
165
165
192
192
192
192
192
192
182
182
182
152
152
152
195
195
195
180
180
180
178
178
178
184
184
184
185
185
185
195
195
195
193
193
193
168
168
168
164
164
164
163
163
163
160
160
160
155
155
155
198
198
198
190
190
190
