P3
# Created by GIMP version 2.10.36 PNM plug-in
16 16
255
134
196
49
135
198
51
147
210
64
144
206
60
149
211
65
152
214
68
133
196
49
130
193
46
134
196
49
139
202
55
137
199
52
138
200
53
132
194
47
149
211
65
114
176
34
134
196
49
136
198
51
132
194
47
123
186
40
130
192
45
137
200
53
131
194
47
133
195
48
120
182
37
113
175
34
131
193
46
135
198
51
150
212
66
149
211
65
136
198
51
136
199
52
131
193
46
130
192
45
134
197
50
131
193
46
141
204
57
131
193
46
131
194
47
131
193
46
113
174
34
114
176
34
145
208
61
130
193
46
131
194
47
129
192
45
132
195
48
140
203
56
134
197
50
145
208
61
131
194
47
130
193
46
145
207
61
146
208
62
144
206
60
140
202
55
134
197
50
132
195
48
139
201
54
136
198
51
131
193
46
132
194
47
113
175
34
112
173
33
131
194
47
141
203
56
134
197
50
135
197
50
135
197
50
143
205
59
139
201
54
140
202
55
133
195
48
132
195
48
151
214
68
147
209
63
129
192
45
132
194
47
118
180
36
116
178
35
136
199
52
129
192
45
132
194
47
126
189
42
113
175
34
135
197
50
140
203
56
132
194
47
116
178
35
140
202
55
138
200
53
137
199
52
114
176
34
140
202
55
133
195
48
138
200
53
136
199
52
138
201
54
135
198
51
112
174
33
127
190
43
131
194
47
138
200
53
136
199
52
132
195
48
137
200
53
133
196
49
147
210
64
151
214
68
140
203
56
140
202
55
131
193
46
113
174
34
142
204
58
134
196
49
142
204
58
148
210
64
134
197
50
132
195
48
135
198
51
114
175
34
117
179
36
147
210
64
133
196
49
133
196
49
139
201
54
142
204
58
149
211
65
139
201
54
132
194
47
121
183
38
137
200
53
145
208
61
142
205
58
134
196
49
130
193
46
120
182
37
116
178
35
152
214
68
134
197
50
135
198
51
130
192
45
117
179
36
131
194
47
144
206
60
150
212
67
139
201
54
131
193
46
132
194
47
145
208
61
134
196
49
147
209
63
136
199
52
146
208
62
131
194
47
142
205
58
132
195
48
134
197
50
135
198
51
144
206
59
152
214
68
123
185
39
119
181
37
138
201
54
143
205
59
146
208
62
113
174
34
150
212
67
142
204
58
147
210
64
135
197
50
130
193
46
134
197
50
140
203
56
152
214
68
130
192
45
134
197
50
115
176
35
117
178
35
150
212
66
130
192
45
147
209
63
140
203
56
130
192
45
127
190
43
136
199
52
144
206
59
133
196
49
131
193
46
131
194
47
140
203
56
151
213
67
153
215
70
149
211
65
143
205
59
151
214
68
133
195
48
150
212
67
138
200
53
133
195
48
151
214
68
134
196
49
140
203
56
149
211
65
114
176
34
125
187
41
140
203
56
133
196
49
132
195
48
136
198
51
133
195
48
133
195
48
138
201
54
118
180
36
116
178
35
135
197
50
138
200
53
150
212
67
132
194
47
151
214
68
122
184
39
115
176
35
131
193
46
134
197
50
136
198
51
140
203
56
115
176
35
134
196
49
141
203
56
115
177
35
127
190
43
135
198
51
140
203
56
138
201
54
147
209
63
138
200
53
138
201
54
130
193
46
139
201
54
117
179
36
140
203
56
131
194
47
134
196
49
142
205
58
135
197
50
131
193
46
132
194
47
135
198
51
151
213
67
141
203
56
123
185
40
139
202
55
153
215
70
132
195
48
131
194
47
131
194
47
130
193
46
