P3
# Created by GIMP version 2.10.36 PNM plug-in
16 16
255
155
157
158
178
180
181
180
181
183
112
113
114
118
119
120
154
155
156
167
169
170
118
119
120
123
125
126
154
156
157
178
180
181
194
196
197
187
189
190
170
171
172
120
122
122
112
113
114
145
146
147
180
181
183
118
119
120
115
117
117
146
148
149
175
177
178
118
119
120
147
149
150
112
113
114
141
143
144
140
142
143
180
181
183
179
181
182
123
124
125
154
155
156
154
155
156
180
181
183
125
127
127
158
160
161
154
155
156
154
155
156
194
196
197
118
119
120
137
139
139
154
155
156
154
155
156
148
150
151
191
192
194
178
180
181
180
181
183
133
134
135
150
152
153
180
181
183
180
181
183
129
131
132
155
157
158
166
168
169
191
192
194
154
155
156
152
154
154
140
141
142
154
155
156
191
192
194
189
191
192
121
123
123
180
181
183
180
181
183
193
195
196
131
133
133
118
119
120
191
192
194
191
192
194
191
192
194
191
192
194
174
176
177
154
155
156
196
198
199
192
193
195
118
119
120
130
132
132
154
155
156
154
155
156
180
181
183
168
170
171
113
114
115
156
158
159
165
167
168
113
115
116
123
125
126
114
116
116
180
181
183
191
192
194
174
176
177
100
101
102
127
128
129
154
155
156
140
141
142
154
155
156
146
148
149
174
176
177
161
162
163
146
148
149
183
185
186
128
130
131
151
153
154
158
160
161
154
156
157
180
181
183
180
181
183
180
181
183
154
155
156
141
143
144
146
147
148
138
140
140
183
185
186
187
189
190
159
161
162
161
162
163
163
165
166
191
192
194
199
201
202
200
202
203
191
192
194
145
146
147
119
121
121
152
154
154
184
186
187
179
181
182
165
167
168
193
195
196
184
186
187
175
177
178
180
181
183
118
119
120
118
119
120
118
119
120
152
154
154
184
186
187
115
117
117
134
135
136
118
119
120
118
119
120
139
140
141
171
172
173
129
131
132
142
144
145
177
179
180
180
181
183
180
181
183
154
155
156
146
148
149
154
155
156
141
143
144
196
198
199
176
178
179
165
167
168
118
119
120
118
119
120
171
172
173
154
155
156
198
200
201
180
181
183
118
119
120
118
119
120
194
196
197
186
188
189
145
146
147
154
155
156
196
198
199
180
181
183
180
181
183
173
175
176
187
189
190
154
155
156
154
155
156
196
198
199
181
182
184
118
119
120
118
119
120
151
153
154
191
192
194
181
182
184
191
192
194
187
189
190
180
181
183
123
125
126
113
115
116
151
153
154
164
166
167
195
197
198
180
181
183
180
181
183
113
114
115
148
150
151
138
140
140
154
155
156
180
181
183
127
128
129
131
133
133
133
134
135
188
190
191
155
157
158
123
124
125
140
141
142
116
118
118
118
119
120
180
181
183
180
181
183
118
119
120
149
151
152
149
151
152
187
189
190
123
125
126
120
122
122
140
142
143
146
148
149
174
176
177
181
182
184
196
198
199
176
178
179
163
165
166
149
151
152
155
157
158
180
181
183
158
160
161
146
147
148
154
155
156
191
192
194
176
178
179
142
144
145
123
125
126
154
155
156
163
165
166
154
155
156
154
156
157
184
186
187
182
184
185
185
187
188
154
155
156
180
181
183
171
172
173
191
192
194
191
192
194
177
179
180
147
149
150
192
194
196
161
162
163
146
148
149
154
155
156
191
192
194
175
177
178
123
124
125
154
155
156
154
155
156
196
198
199
173
175
176
123
124
125
118
119
120
180
181
183
152
154
154
