P3
# Created by GIMP version 2.10.36 PNM plug-in
16 16
255
162
162
162
154
154
154
162
162
162
157
157
157
147
147
147
159
159
159
115
115
115
114
114
114
149
149
149
151
151
151
149
149
149
156
156
156
144
144
144
144
144
144
145
145
145
97
97
97
159
159
159
137
137
137
138
138
138
138
138
138
124
124
124
109
109
109
109
109
109
95
95
95
149
149
149
128
128
128
129
129
129
122
122
122
128
128
128
130
130
130
126
126
126
100
100
100
145
145
145
124
124
124
124
124
124
123
123
123
109
109
109
104
104
104
146
146
146
95
95
95
153
153
153
109
109
109
107
107
107
128
128
128
129
129
129
104
104
104
99
99
99
96
96
96
103
103
103
106
106
106
130
130
130
109
109
109
106
106
106
106
106
106
148
148
148
96
96
96
158
158
158
123
123
123
124
124
124
106
106
106
109
109
109
133
133
133
136
136
136
97
97
97
150
150
150
144
144
144
105
105
105
103
103
103
147
147
147
147
147
147
137
137
137
94
94
94
150
150
150
138
138
138
138
138
138
101
101
101
148
148
148
138
138
138
118
118
118
95
95
95
150
150
150
122
122
122
105
105
105
147
147
147
128
128
128
116
116
116
128
128
128
95
95
95
149
149
149
123
123
123
117
117
117
107
107
107
123
123
123
123
123
123
108
108
108
100
100
100
130
130
130
97
97
97
102
102
102
144
144
144
111
111
111
95
95
95
96
96
96
95
95
95
140
140
140
118
118
118
100
100
100
96
96
96
143
143
143
117
117
117
117
117
117
99
99
99
96
96
96
95
95
95
95
95
95
95
95
95
96
96
96
95
95
95
95
95
95
94
94
94
94
94
94
95
95
95
99
99
99
99
99
99
98
98
98
97
97
97
97
97
97
95
95
95
150
150
150
115
115
115
154
154
154
153
153
153
158
158
158
158
158
158
151
151
151
97
97
97
99
99
99
160
160
160
156
156
156
111
111
111
115
115
115
158
158
158
147
147
147
157
157
157
128
128
128
128
128
128
113
113
113
96
96
96
151
151
151
138
138
138
106
106
106
148
148
148
147
147
147
123
123
123
123
123
123
124
124
124
96
96
96
161
161
161
138
138
138
107
107
107
124
124
124
139
139
139
119
119
119
95
95
95
153
153
153
107
107
107
106
106
106
129
129
129
130
130
130
138
138
138
124
124
124
124
124
124
95
95
95
152
152
152
107
107
107
106
106
106
137
137
137
130
130
130
111
111
111
95
95
95
159
159
159
109
109
109
145
145
145
103
103
103
128
128
128
130
130
130
130
130
130
123
123
123
94
94
94
117
117
117
108
108
108
144
144
144
137
137
137
122
122
122
106
106
106
95
95
95
150
150
150
148
148
148
130
130
130
128
128
128
104
104
104
124
124
124
123
123
123
122
122
122
96
96
96
149
149
149
147
147
147
130
130
130
123
123
123
116
116
116
108
108
108
94
94
94
150
150
150
137
137
137
138
138
138
128
128
128
138
138
138
104
104
104
109
109
109
117
117
117
94
94
94
150
150
150
137
137
137
138
138
138
97
97
97
145
145
145
122
122
122
95
95
95
139
139
139
110
110
110
122
122
122
116
116
116
113
113
113
112
112
112
98
98
98
99
99
99
96
96
96
140
140
140
109
109
109
121
121
121
94
94
94
95
95
95
95
95
95
95
95
95
95
95
95
94
94
94
96
96
96
95
95
95
93
93
93
95
95
95
99
99
99
94
94
94
99
99
99
98
98
98
97
97
97
96
96
96
