P3
# Created by GIMP version 2.10.36 PNM plug-in
16 16
255
74
74
74
59
59
59
59
59
59
49
49
49
49
49
49
59
59
59
59
59
59
49
49
49
44
44
44
49
49
49
49
49
49
59
59
59
74
74
74
74
74
74
87
87
87
87
87
87
59
59
59
59
59
59
49
49
49
44
44
44
59
59
59
74
74
74
49
49
49
44
44
44
49
49
49
44
44
44
49
49
49
74
74
74
59
59
59
74
74
74
74
74
74
87
87
87
59
59
59
49
49
49
44
44
44
44
44
44
74
74
74
74
74
74
49
49
49
44
44
44
44
44
44
49
49
49
59
59
59
59
59
59
59
59
59
87
87
87
59
59
59
74
74
74
49
49
49
49
49
49
49
49
49
49
49
49
74
74
74
59
59
59
44
44
44
44
44
44
49
49
49
59
59
59
59
59
59
59
59
59
74
74
74
74
74
74
74
74
74
59
59
59
49
49
49
44
44
44
44
44
44
59
59
59
74
74
74
44
44
44
59
59
59
59
59
59
59
59
59
59
59
59
74
74
74
74
74
74
59
59
59
74
74
74
59
59
59
49
49
49
44
44
44
49
49
49
49
49
49
74
74
74
74
74
74
59
59
59
59
59
59
74
74
74
74
74
74
74
74
74
59
59
59
74
74
74
74
74
74
59
59
59
59
59
59
49
49
49
49
49
49
49
49
49
74
74
74
74
74
74
59
59
59
74
74
74
74
74
74
74
74
74
87
87
87
87
87
87
74
74
74
59
59
59
59
59
59
59
59
59
49
49
49
44
44
44
59
59
59
74
74
74
59
59
59
59
59
59
74
74
74
74
74
74
59
59
59
74
74
74
87
87
87
74
74
74
59
59
59
59
59
59
49
49
49
49
49
49
49
49
49
59
59
59
59
59
59
49
49
49
49
49
49
74
74
74
74
74
74
87
87
87
87
87
87
74
74
74
59
59
59
59
59
59
59
59
59
49
49
49
49
49
49
59
59
59
59
59
59
59
59
59
49
49
49
49
49
49
74
74
74
74
74
74
87
87
87
87
87
87
74
74
74
59
59
59
59
59
59
49
49
49
49
49
49
49
49
49
74
74
74
74
74
74
59
59
59
49
49
49
74
74
74
87
87
87
74
74
74
87
87
87
87
87
87
74
74
74
59
59
59
59
59
59
49
49
49
49
49
49
59
59
59
74
74
74
59
59
59
49
49
49
49
49
49
49
49
49
87
87
87
87
87
87
87
87
87
74
74
74
59
59
59
49
49
49
59
59
59
49
49
49
49
49
49
74
74
74
74
74
74
59
59
59
44
44
44
44
44
44
49
49
49
74
74
74
74
74
74
87
87
87
74
74
74
59
59
59
59
59
59
49
49
49
49
49
49
49
49
49
74
74
74
74
74
74
59
59
59
49
49
49
44
44
44
49
49
49
59
59
59
87
87
87
87
87
87
74
74
74
59
59
59
59
59
59
49
49
49
44
44
44
44
44
44
59
59
59
74
74
74
74
74
74
49
49
49
44
44
44
44
44
44
59
59
59
74
74
74
87
87
87
87
87
87
74
74
74
49
49
49
59
59
59
44
44
44
44
44
44
49
49
49
59
59
59
74
74
74
59
59
59
49
49
49
44
44
44
49
49
49
59
59
59
87
87
87
74
74
74
87
87
87
59
59
59
59
59
59
49
49
49
44
44
44
49
49
49
59
59
59
59
59
59
59
59
59
49
49
49
44
44
44
49
49
49
59
59
59
74
74
74
74
74
74
87
87
87
