P3
# Created by GIMP version 2.10.36 PNM plug-in
16 16
255
109
109
109
109
109
109
145
145
145
109
109
109
109
109
109
145
145
145
145
145
145
109
109
109
109
109
109
145
145
145
109
109
109
109
109
109
145
145
145
145
145
145
109
109
109
109
109
109
109
109
109
179
179
179
164
164
164
109
109
109
145
145
145
164
164
164
164
164
164
145
145
145
109
109
109
164
164
164
164
164
164
109
109
109
145
145
145
164
164
164
164
164
164
109
109
109
109
109
109
145
145
145
164
164
164
109
109
109
109
109
109
164
164
164
164
164
164
164
164
164
109
109
109
179
179
179
164
164
164
109
109
109
164
164
164
164
164
164
164
164
164
109
109
109
109
109
109
145
145
145
164
164
164
145
145
145
109
109
109
164
164
164
145
145
145
179
179
179
109
109
109
179
179
179
164
164
164
109
109
109
179
179
179
164
164
164
145
145
145
109
109
109
109
109
109
145
145
145
164
164
164
145
145
145
109
109
109
179
179
179
145
145
145
164
164
164
109
109
109
164
164
164
145
145
145
109
109
109
179
179
179
164
164
164
145
145
145
109
109
109
109
109
109
179
179
179
164
164
164
145
145
145
109
109
109
179
179
179
164
164
164
164
164
164
109
109
109
164
164
164
145
145
145
109
109
109
179
179
179
164
164
164
145
145
145
109
109
109
109
109
109
179
179
179
164
164
164
164
164
164
109
109
109
179
179
179
164
164
164
164
164
164
109
109
109
164
164
164
145
145
145
109
109
109
145
145
145
164
164
164
109
109
109
109
109
109
109
109
109
164
164
164
164
164
164
164
164
164
109
109
109
164
164
164
164
164
164
164
164
164
109
109
109
164
164
164
164
164
164
109
109
109
145
145
145
164
164
164
109
109
109
109
109
109
109
109
109
164
164
164
164
164
164
164
164
164
109
109
109
145
145
145
164
164
164
145
145
145
109
109
109
164
164
164
164
164
164
145
145
145
109
109
109
164
164
164
145
145
145
109
109
109
109
109
109
145
145
145
164
164
164
164
164
164
109
109
109
145
145
145
164
164
164
145
145
145
109
109
109
164
164
164
164
164
164
164
164
164
109
109
109
164
164
164
145
145
145
109
109
109
109
109
109
145
145
145
164
164
164
164
164
164
109
109
109
145
145
145
164
164
164
109
109
109
109
109
109
164
164
164
164
164
164
164
164
164
109
109
109
164
164
164
145
145
145
109
109
109
109
109
109
109
109
109
164
164
164
164
164
164
109
109
109
179
179
179
164
164
164
109
109
109
145
145
145
164
164
164
145
145
145
164
164
164
109
109
109
179
179
179
164
164
164
109
109
109
109
109
109
109
109
109
164
164
164
164
164
164
109
109
109
179
179
179
164
164
164
109
109
109
145
145
145
164
164
164
164
164
164
164
164
164
109
109
109
179
179
179
164
164
164
109
109
109
109
109
109
109
109
109
164
164
164
145
145
145
109
109
109
164
164
164
164
164
164
109
109
109
145
145
145
164
164
164
164
164
164
145
145
145
109
109
109
179
179
179
164
164
164
109
109
109
109
109
109
145
145
145
164
164
164
145
145
145
109
109
109
164
164
164
164
164
164
109
109
109
109
109
109
179
179
179
164
164
164
109
109
109
109
109
109
164
164
164
164
164
164
109
109
109
109
109
109
109
109
109
145
145
145
145
145
145
109
109
109
109
109
109
145
145
145
109
109
109
109
109
109
145
145
145
109
109
109
109
109
109
145
145
145
145
145
145
109
109
109
109
109
109
