P3
# Created by GIMP version 2.10.36 PNM plug-in
16 16
255
74
77
170
76
79
172
88
91
184
85
88
181
90
92
185
93
96
188
74
77
170
71
74
167
74
77
170
80
83
176
77
80
173
78
81
174
72
75
168
90
92
185
57
60
150
74
77
170
76
79
172
72
75
168
64
67
160
70
73
166
78
81
174
72
75
168
73
76
169
61
64
156
56
59
149
71
74
167
76
79
172
91
94
186
90
93
185
76
79
172
77
80
173
71
74
167
70
73
166
75
78
171
71
74
167
82
85
178
71
74
167
72
75
168
71
74
167
56
58
148
57
60
150
86
89
182
71
74
167
72
75
168
70
73
166
73
76
169
81
84
177
75
78
171
86
89
182
72
75
168
71
74
167
85
88
181
87
90
182
85
88
181
80
83
176
75
78
171
73
76
169
79
82
175
76
79
172
71
74
167
72
75
168
56
59
149
55
58
148
72
75
168
81
84
177
75
78
171
75
78
171
75
78
171
84
87
179
79
82
175
80
83
176
73
76
169
73
76
169
93
95
188
88
91
183
70
73
166
72
75
168
60
63
154
58
61
152
77
80
173
70
73
166
72
75
168
67
70
163
56
59
149
75
78
171
81
84
177
72
75
168
58
61
152
80
83
176
78
81
174
77
80
173
57
60
150
80
83
176
73
76
169
78
81
174
77
80
173
79
82
175
76
79
172
55
58
148
68
71
164
72
75
168
78
81
174
77
80
173
73
76
169
78
81
174
74
77
170
88
91
184
93
95
188
81
84
177
80
83
176
71
74
167
56
58
148
83
86
178
74
77
170
83
86
178
89
92
184
75
78
171
73
76
169
76
79
172
56
59
150
59
62
153
88
91
184
74
77
170
74
77
170
79
82
175
83
86
178
90
93
185
79
82
175
72
75
168
62
65
157
78
81
174
86
89
182
83
86
179
74
77
170
71
74
167
61
64
156
58
61
152
93
96
188
75
78
171
76
79
172
70
73
166
59
62
153
72
75
168
85
88
181
91
94
187
79
82
175
71
74
167
72
75
168
86
89
182
74
77
170
88
91
183
77
80
173
87
90
182
72
75
168
83
86
179
73
76
169
75
78
171
76
79
172
84
87
180
93
96
188
63
66
159
60
63
155
79
82
175
84
87
179
87
90
182
56
58
148
91
94
187
83
86
178
88
91
184
75
78
171
71
74
167
75
78
171
81
84
177
93
96
188
70
73
166
75
78
171
57
60
151
58
61
153
91
94
186
70
73
166
88
91
183
81
84
177
70
73
166
68
71
164
77
80
173
84
87
180
74
77
170
71
74
167
72
75
168
81
84
177
92
95
187
94
97
189
90
92
185
84
87
179
93
95
188
73
76
169
91
94
187
78
81
174
73
76
169
93
95
188
74
77
170
81
84
177
90
93
185
57
60
150
66
69
161
81
84
177
74
77
170
73
76
169
76
79
172
73
76
169
73
76
169
79
82
175
59
62
154
58
61
152
75
78
171
78
81
174
91
94
187
72
75
168
93
95
188
63
66
158
57
60
151
71
74
167
75
78
171
76
79
172
81
84
177
57
60
151
74
77
170
81
84
177
57
60
151
68
71
164
76
79
172
81
84
177
79
82
175
88
91
183
78
81
174
79
82
175
71
74
167
79
82
175
59
62
154
81
84
177
72
75
168
74
77
170
83
86
179
75
78
171
71
74
167
72
75
168
76
79
172
92
95
187
81
84
177
64
67
159
80
83
176
94
97
189
73
76
169
72
75
168
72
75
168
71
74
167
