P3
# Created by GIMP version 2.10.36 PNM plug-in
16 16
255
130
89
58
131
91
59
143
103
72
140
100
68
145
104
73
148
108
77
129
89
57
126
86
54
130
89
58
135
95
63
133
92
61
134
93
62
128
87
56
145
104
73
110
71
42
130
89
58
132
91
60
128
87
56
119
79
48
126
85
54
133
93
61
127
87
55
129
88
57
116
76
45
110
70
41
127
86
55
131
91
59
146
106
74
145
105
74
132
91
60
132
92
60
127
86
55
126
85
54
130
90
58
127
86
55
137
97
66
127
86
55
127
87
55
127
86
55
109
70
41
110
71
42
141
101
70
126
86
54
127
87
55
125
85
53
128
88
56
136
96
64
130
90
58
141
101
70
127
87
55
126
86
54
141
100
69
142
101
70
140
100
68
136
95
64
130
90
58
128
88
56
135
94
63
132
91
60
127
86
55
128
87
56
110
70
41
108
69
41
127
87
55
137
96
65
130
90
58
131
90
59
131
90
59
139
99
67
135
94
63
136
95
64
129
88
57
128
88
56
147
107
76
143
103
71
125
85
53
128
87
56
114
74
44
112
72
43
132
92
60
125
85
53
128
87
56
122
82
51
110
70
41
131
90
59
136
96
64
128
87
56
112
72
43
136
95
64
134
93
62
133
92
61
110
71
42
136
95
64
129
88
57
134
93
62
132
92
60
134
94
62
131
91
59
108
69
41
123
83
51
127
87
55
134
93
62
132
92
60
128
88
56
133
93
61
129
89
57
143
103
72
147
107
76
136
96
64
136
95
64
127
86
55
109
70
41
138
98
66
130
89
58
138
98
66
144
104
73
130
90
58
128
88
56
131
91
59
110
71
41
113
73
43
143
103
72
129
89
57
129
89
57
135
94
63
138
98
66
145
105
74
135
94
63
128
87
56
117
77
46
133
93
61
141
101
70
138
98
67
130
89
58
126
86
54
116
76
45
112
73
43
148
108
77
130
90
58
131
91
59
126
85
54
113
73
43
127
87
55
140
100
68
146
106
75
135
94
63
127
86
55
128
87
56
141
101
70
130
89
58
143
103
71
132
92
60
142
101
70
127
87
55
138
98
67
128
88
56
130
90
58
131
91
59
140
99
68
148
108
77
119
78
47
115
75
45
134
94
62
139
99
67
142
101
70
109
70
41
146
106
75
138
98
66
143
103
72
131
90
59
126
86
54
130
90
58
136
96
64
148
108
77
126
85
54
130
90
58
111
71
42
113
73
43
146
106
74
126
85
54
143
103
71
136
96
64
126
85
54
123
83
51
132
92
60
140
99
68
129
89
57
127
86
55
127
87
55
136
96
64
147
107
76
149
109
78
145
104
73
139
99
67
147
107
76
129
88
57
146
106
75
134
93
62
129
88
57
147
107
76
130
89
58
136
96
64
145
105
74
110
71
42
121
80
49
136
96
64
129
89
57
128
88
56
132
91
60
129
88
57
129
88
57
134
94
62
114
74
44
112
72
43
131
90
59
134
93
62
146
106
75
128
87
56
147
107
76
118
78
47
111
71
42
127
86
55
130
90
58
132
91
60
136
96
64
111
71
42
130
89
58
137
96
65
111
72
42
123
83
51
131
91
59
136
96
64
134
94
62
143
103
71
134
93
62
134
94
62
126
86
54
135
94
63
113
74
44
136
96
64
127
87
55
130
89
58
138
98
67
131
90
59
127
86
55
128
87
56
131
91
59
147
107
76
137
96
65
119
79
48
135
95
63
149
109
78
128
88
56
127
87
55
127
87
55
126
86
54
