P3
# Created by GIMP version 2.10.36 PNM plug-in
16 16
255
217
144
170
219
145
172
231
157
184
227
154
181
232
158
185
235
162
188
217
143
170
214
140
167
217
144
170
223
149
176
220
147
173
221
148
174
215
142
168
232
158
185
197
124
150
217
144
170
219
146
172
215
142
168
207
133
160
213
140
166
221
147
174
215
141
168
216
143
169
203
130
156
196
123
149
214
141
167
219
145
172
233
160
186
232
159
185
219
146
172
220
146
173
214
141
167
213
140
166
218
144
171
214
141
167
225
151
178
214
141
167
215
141
168
214
141
167
195
122
148
197
124
150
228
155
182
214
140
167
215
141
168
213
139
166
216
142
169
224
150
177
218
144
171
228
155
182
215
141
168
214
140
167
228
155
181
229
156
182
227
154
181
223
150
176
218
144
171
216
142
169
222
149
175
219
146
172
214
141
167
215
142
168
196
123
149
194
122
148
215
141
168
224
151
177
218
144
171
218
145
171
218
145
171
226
153
179
222
149
175
223
150
176
216
143
169
216
142
169
234
161
188
230
157
183
213
139
166
215
142
168
201
128
154
199
126
152
220
146
173
213
139
166
215
142
168
210
136
163
196
123
149
218
145
171
224
150
177
215
142
168
199
126
152
223
150
176
221
148
174
220
147
173
197
124
150
223
150
176
216
143
169
221
148
174
220
146
173
222
148
175
219
145
172
195
122
148
211
137
164
215
141
168
221
148
174
220
146
173
216
142
169
221
147
174
217
143
170
231
157
184
234
161
188
224
150
177
223
150
176
214
141
167
195
122
148
225
152
178
217
144
170
225
152
178
231
158
184
218
144
171
216
142
169
219
145
172
196
124
150
200
127
153
231
157
184
217
143
170
217
143
170
222
149
175
225
152
178
232
159
185
222
149
175
215
142
168
204
131
157
221
147
174
228
155
182
226
152
179
217
144
170
214
140
167
203
130
156
199
126
152
235
162
188
218
144
171
219
145
172
213
140
166
200
127
153
215
141
168
227
154
181
233
160
187
222
149
175
214
141
167
215
142
168
228
155
182
217
144
170
230
157
183
220
146
173
229
156
182
215
141
168
226
152
179
216
142
169
218
144
171
219
145
172
227
154
180
235
162
188
206
132
159
202
129
155
222
148
175
226
153
179
229
156
182
195
122
148
233
160
187
225
152
178
231
157
184
218
145
171
214
140
167
218
144
171
224
150
177
235
162
188
213
140
166
218
144
171
197
124
151
199
126
153
233
160
186
213
140
166
230
157
183
224
150
177
213
140
166
211
137
164
220
146
173
227
154
180
217
143
170
214
141
167
215
141
168
224
150
177
234
161
187
236
163
189
232
158
185
226
153
179
234
161
188
216
143
169
233
160
187
221
148
174
216
143
169
234
161
188
217
144
170
224
150
177
232
159
185
197
124
150
208
135
161
224
150
177
217
143
170
216
142
169
219
146
172
216
143
169
216
143
169
222
148
175
201
128
154
199
126
152
218
145
171
221
148
174
233
160
187
215
142
168
234
161
188
205
132
158
197
124
151
214
141
167
218
144
171
219
146
172
224
150
177
197
124
151
217
144
170
224
151
177
198
125
151
211
137
164
219
145
172
224
150
177
222
148
175
230
157
183
221
148
174
222
148
175
214
140
167
222
149
175
200
127
154
224
150
177
215
141
168
217
144
170
226
152
179
218
145
171
214
141
167
215
142
168
219
145
172
234
161
187
224
151
177
206
133
159
223
149
176
236
163
189
216
142
169
215
141
168
215
141
168
214
140
167
