P3
# Created by GIMP version 2.10.36 PNM plug-in
16 16
255
187
187
187
189
189
189
201
201
201
197
197
197
202
202
202
205
205
205
187
187
187
184
184
184
187
187
187
193
193
193
190
190
190
191
191
191
185
185
185
202
202
202
167
167
167
187
187
187
189
189
189
185
185
185
177
177
177
183
183
183
191
191
191
185
185
185
186
186
186
173
173
173
166
166
166
184
184
184
189
189
189
203
203
203
202
202
202
189
189
189
190
190
190
184
184
184
183
183
183
188
188
188
184
184
184
195
195
195
184
184
184
185
185
185
184
184
184
165
165
165
167
167
167
199
199
199
184
184
184
185
185
185
183
183
183
186
186
186
194
194
194
188
188
188
199
199
199
185
185
185
184
184
184
198
198
198
199
199
199
197
197
197
193
193
193
188
188
188
186
186
186
192
192
192
189
189
189
184
184
184
185
185
185
166
166
166
164
164
164
185
185
185
194
194
194
188
188
188
188
188
188
188
188
188
196
196
196
192
192
192
193
193
193
186
186
186
186
186
186
205
205
205
200
200
200
183
183
183
185
185
185
171
171
171
169
169
169
190
190
190
183
183
183
185
185
185
180
180
180
166
166
166
188
188
188
194
194
194
185
185
185
169
169
169
193
193
193
191
191
191
190
190
190
167
167
167
193
193
193
186
186
186
191
191
191
190
190
190
192
192
192
189
189
189
165
165
165
181
181
181
185
185
185
191
191
191
190
190
190
186
186
186
191
191
191
187
187
187
201
201
201
205
205
205
194
194
194
193
193
193
184
184
184
165
165
165
195
195
195
187
187
187
195
195
195
201
201
201
188
188
188
186
186
186
189
189
189
167
167
167
170
170
170
201
201
201
187
187
187
187
187
187
192
192
192
195
195
195
202
202
202
192
192
192
185
185
185
174
174
174
191
191
191
199
199
199
196
196
196
187
187
187
184
184
184
173
173
173
169
169
169
205
205
205
188
188
188
189
189
189
183
183
183
170
170
170
185
185
185
197
197
197
203
203
203
192
192
192
184
184
184
185
185
185
199
199
199
187
187
187
200
200
200
190
190
190
199
199
199
185
185
185
196
196
196
186
186
186
188
188
188
189
189
189
197
197
197
205
205
205
176
176
176
172
172
172
192
192
192
196
196
196
199
199
199
165
165
165
203
203
203
195
195
195
201
201
201
188
188
188
184
184
184
188
188
188
194
194
194
205
205
205
183
183
183
188
188
188
167
167
167
170
170
170
203
203
203
183
183
183
200
200
200
194
194
194
183
183
183
181
181
181
190
190
190
197
197
197
187
187
187
184
184
184
185
185
185
194
194
194
204
204
204
206
206
206
202
202
202
196
196
196
205
205
205
186
186
186
203
203
203
191
191
191
186
186
186
205
205
205
187
187
187
194
194
194
202
202
202
167
167
167
178
178
178
194
194
194
187
187
187
186
186
186
189
189
189
186
186
186
186
186
186
192
192
192
171
171
171
169
169
169
188
188
188
191
191
191
203
203
203
185
185
185
205
205
205
175
175
175
167
167
167
184
184
184
188
188
188
189
189
189
194
194
194
167
167
167
187
187
187
194
194
194
168
168
168
181
181
181
189
189
189
194
194
194
192
192
192
200
200
200
191
191
191
192
192
192
184
184
184
192
192
192
170
170
170
194
194
194
185
185
185
187
187
187
196
196
196
188
188
188
184
184
184
185
185
185
189
189
189
204
204
204
194
194
194
176
176
176
193
193
193
206
206
206
186
186
186
185
185
185
185
185
185
184
184
184
