P3
# Created by GIMP version 2.10.36 PNM plug-in
16 16
255
217
184
48
219
186
50
231
198
63
227
194
59
232
199
64
235
202
68
217
184
48
214
181
45
217
184
48
223
190
54
220
187
51
221
188
52
215
182
46
232
199
64
197
164
33
217
184
48
219
186
50
215
182
46
207
174
39
213
180
44
221
188
52
215
182
46
216
183
47
203
170
36
196
163
33
214
181
45
219
186
50
233
200
65
232
199
64
219
186
50
220
187
51
214
181
45
213
180
44
218
185
49
214
181
45
225
192
56
214
181
45
215
182
46
214
181
45
195
162
33
197
164
33
228
196
60
214
181
45
215
182
46
213
180
44
216
183
47
224
191
55
218
185
49
228
196
60
215
182
46
214
181
45
228
195
60
229
196
61
227
194
59
223
190
54
218
185
49
216
183
47
222
189
53
219
186
50
214
181
45
215
182
46
196
163
33
194
162
32
215
182
46
224
191
55
218
185
49
218
185
49
218
185
49
226
193
58
222
189
53
223
190
54
216
183
47
216
183
47
234
202
67
230
197
62
213
180
44
215
182
46
201
168
35
199
166
34
220
187
51
213
180
44
215
182
46
210
177
41
196
163
33
218
185
49
224
191
55
215
182
46
199
166
34
223
190
54
221
188
52
220
187
51
197
164
33
223
190
54
216
183
47
221
188
52
220
187
51
222
189
53
219
186
50
195
162
32
211
178
42
215
182
46
221
188
52
220
187
51
216
183
47
221
188
52
217
184
48
231
198
63
234
202
67
224
191
55
223
190
54
214
181
45
195
162
33
225
192
57
217
184
48
225
192
57
231
198
63
218
185
49
216
183
47
219
186
50
196
164
33
200
167
35
231
198
63
217
184
48
217
184
48
222
189
53
225
192
57
232
199
64
222
189
53
215
182
46
204
171
37
221
188
52
228
196
60
226
193
57
217
184
48
214
181
45
203
170
36
199
166
34
235
202
68
218
185
49
219
186
50
213
180
44
200
167
35
215
182
46
227
194
59
233
201
66
222
189
53
214
181
45
215
182
46
228
196
60
217
184
48
230
197
62
220
187
51
229
196
61
215
182
46
226
193
57
216
183
47
218
185
49
219
186
50
227
194
58
235
202
68
206
173
38
202
169
36
222
189
53
226
193
58
229
196
61
195
162
33
233
201
66
225
192
57
231
198
63
218
185
49
214
181
45
218
185
49
224
191
55
235
202
68
213
180
44
218
185
49
197
164
34
199
167
35
233
200
65
213
180
44
230
197
62
224
191
55
213
180
44
211
178
42
220
187
51
227
194
58
217
184
48
214
181
45
215
182
46
224
191
55
234
201
66
236
203
69
232
199
64
226
193
58
234
202
67
216
183
47
233
201
66
221
188
52
216
183
47
234
202
67
217
184
48
224
191
55
232
199
64
197
164
33
208
175
40
224
191
55
217
184
48
216
183
47
219
186
50
216
183
47
216
183
47
222
189
53
201
168
35
199
166
34
218
185
49
221
188
52
233
201
66
215
182
46
234
202
67
205
172
38
197
164
34
214
181
45
218
185
49
219
186
50
224
191
55
197
164
34
217
184
48
224
191
55
198
165
34
211
178
42
219
186
50
224
191
55
222
189
53
230
197
62
221
188
52
222
189
53
214
181
45
222
189
53
200
167
35
224
191
55
215
182
46
217
184
48
226
193
57
218
185
49
214
181
45
215
182
46
219
186
50
234
201
66
224
191
55
206
173
39
223
190
54
236
203
69
216
183
47
215
182
46
215
182
46
214
181
45
