P3
# Created by GIMP version 2.10.36 PNM plug-in
16 16
255
223
223
223
226
226
226
226
226
226
221
221
221
215
215
215
216
216
216
233
233
233
224
224
224
224
224
224
233
233
233
224
224
224
224
224
224
225
225
225
233
233
233
233
233
233
225
225
225
219
219
219
204
204
204
208
208
208
210
210
210
208
208
208
205
205
205
201
201
201
196
196
196
206
206
206
204
204
204
208
208
208
210
210
210
205
205
205
222
222
222
221
221
221
219
219
219
190
190
190
205
205
205
202
202
202
190
190
190
193
193
193
191
191
191
195
195
195
189
189
189
190
190
190
190
190
190
185
185
185
185
185
185
197
197
197
199
199
199
188
188
188
185
185
185
234
234
234
234
234
234
234
234
234
234
234
234
234
234
234
234
234
234
234
234
234
233
233
233
224
224
224
233
233
233
233
233
233
234
234
234
234
234
234
234
234
234
234
234
234
184
184
184
234
234
234
234
234
234
234
234
234
234
234
234
234
234
234
234
234
234
234
234
234
234
234
234
234
234
234
234
234
234
234
234
234
234
234
234
234
234
234
234
234
234
234
234
234
184
184
184
234
234
234
234
234
234
234
234
234
234
234
234
234
234
234
191
191
191
191
191
191
234
234
234
234
234
234
191
191
191
191
191
191
234
234
234
234
234
234
234
234
234
234
234
234
184
184
184
234
234
234
234
234
234
234
234
234
234
234
234
234
234
234
234
234
234
234
234
234
191
191
191
191
191
191
234
234
234
234
234
234
234
234
234
234
234
234
234
234
234
234
234
234
184
184
184
234
234
234
234
234
234
234
234
234
234
234
234
234
234
234
234
234
234
191
191
191
234
234
234
234
234
234
191
191
191
234
234
234
234
234
234
234
234
234
234
234
234
234
234
234
186
186
186
234
234
234
234
234
234
234
234
234
234
234
234
234
234
234
234
234
234
234
234
234
234
234
234
234
234
234
234
234
234
234
234
234
234
234
234
234
234
234
234
234
234
234
234
234
186
186
186
184
184
184
194
194
194
182
182
182
184
184
184
182
182
182
182
182
182
195
195
195
182
182
182
194
194
194
180
180
180
182
182
182
195
195
195
195
195
195
194
194
194
195
195
195
186
186
186
234
234
234
230
230
230
230
230
230
230
230
230
230
230
230
234
234
234
234
234
234
230
230
230
230
230
230
223
223
223
230
230
230
234
234
234
234
234
234
230
230
230
230
230
230
186
186
186
233
233
233
208
208
208
208
208
208
188
188
188
205
205
205
222
222
222
196
196
196
196
196
196
209
209
209
212
212
212
204
204
204
192
192
192
188
188
188
190
190
190
229
229
229
186
186
186
233
233
233
208
208
208
196
196
196
205
205
205
184
184
184
202
202
202
227
227
227
186
186
186
196
196
196
196
196
196
183
183
183
210
210
210
212
212
212
202
202
202
223
223
223
186
186
186
233
233
233
183
183
183
212
212
212
187
187
187
212
212
212
212
212
212
208
208
208
197
197
197
212
212
212
210
210
210
192
192
192
204
204
204
212
212
212
185
185
185
215
215
215
186
186
186
224
224
224
205
205
205
205
205
205
205
205
205
205
205
205
194
194
194
205
205
205
205
205
205
205
205
205
210
210
210
205
205
205
205
205
205
205
205
205
205
205
205
205
205
205
194
194
194
194
194
194
185
185
185
194
194
194
184
184
184
194
194
194
194
194
194
194
194
194
185
185
185
194
194
194
184
184
184
182
182
182
184
184
184
194
194
194
184
184
184
186
186
186
182
182
182
