P3
# Created by GIMP version 2.10.36 PNM plug-in
16 16
255
234
234
234
234
234
234
234
234
234
234
234
234
234
234
234
226
226
226
234
234
234
226
226
226
226
226
226
226
226
226
226
226
226
226
226
226
226
226
226
226
226
226
226
226
226
219
219
219
219
219
219
209
209
209
209
209
209
198
198
198
198
198
198
198
198
198
198
198
198
198
198
198
209
209
209
209
209
209
198
198
198
209
209
209
209
209
209
209
209
209
198
198
198
198
198
198
198
198
198
198
198
198
189
189
189
189
189
189
189
189
189
189
189
189
189
189
189
189
189
189
189
189
189
177
177
177
177
177
177
177
177
177
177
177
177
177
177
177
177
177
177
177
177
177
234
234
234
234
234
234
234
234
234
234
234
234
234
234
234
234
234
234
234
234
234
234
234
234
234
234
234
234
234
234
234
234
234
234
234
234
234
234
234
234
234
234
234
234
234
177
177
177
234
234
234
234
234
234
234
234
234
234
234
234
181
181
181
177
177
177
181
181
181
181
181
181
181
181
181
181
181
181
181
181
181
234
234
234
234
234
234
234
234
234
234
234
234
189
189
189
234
234
234
234
234
234
234
234
234
234
234
234
181
181
181
234
234
234
181
181
181
176
176
176
177
177
177
234
234
234
181
181
181
234
234
234
234
234
234
234
234
234
234
234
234
177
177
177
234
234
234
234
234
234
234
234
234
234
234
234
181
181
181
234
234
234
182
182
182
182
182
182
181
181
181
234
234
234
182
182
182
234
234
234
234
234
234
234
234
234
234
234
234
177
177
177
234
234
234
234
234
234
234
234
234
234
234
234
181
181
181
182
182
182
182
182
182
181
181
181
181
181
181
181
181
181
182
182
182
234
234
234
234
234
234
234
234
234
234
234
234
177
177
177
234
234
234
234
234
234
234
234
234
234
234
234
181
181
181
176
176
176
181
181
181
234
234
234
181
181
181
176
176
176
177
177
177
234
234
234
234
234
234
234
234
234
234
234
234
177
177
177
234
234
234
234
234
234
234
234
234
234
234
234
176
176
176
177
177
177
181
181
181
234
234
234
181
181
181
176
176
176
177
177
177
234
234
234
234
234
234
234
234
234
234
234
234
177
177
177
234
234
234
234
234
234
234
234
234
234
234
234
181
181
181
181
181
181
182
182
182
181
181
181
181
181
181
181
181
181
181
181
181
234
234
234
234
234
234
234
234
234
234
234
234
177
177
177
234
234
234
234
234
234
234
234
234
234
234
234
234
234
234
182
182
182
234
234
234
181
181
181
234
234
234
181
181
181
234
234
234
234
234
234
234
234
234
234
234
234
234
234
234
177
177
177
234
234
234
234
234
234
234
234
234
234
234
234
234
234
234
176
176
176
234
234
234
181
181
181
234
234
234
176
176
176
234
234
234
234
234
234
234
234
234
234
234
234
234
234
234
177
177
177
234
234
234
234
234
234
234
234
234
234
234
234
234
234
234
181
181
181
234
234
234
181
181
181
234
234
234
177
177
177
234
234
234
234
234
234
234
234
234
234
234
234
234
234
234
189
189
189
234
234
234
234
234
234
234
234
234
234
234
234
234
234
234
234
234
234
234
234
234
234
234
234
234
234
234
234
234
234
234
234
234
234
234
234
234
234
234
234
234
234
234
234
234
189
189
189
177
177
177
189
189
189
177
177
177
177
177
177
177
177
177
177
177
177
189
189
189
189
189
189
177
177
177
177
177
177
177
177
177
177
177
177
177
177
177
177
177
177
177
177
177
177
177
177
