P3
# Created by GIMP version 2.10.36 PNM plug-in
16 16
255
202
202
202
202
202
202
202
202
202
202
202
202
202
202
202
202
202
202
202
202
202
184
184
184
165
165
165
150
150
150
150
150
150
150
150
150
138
138
138
138
138
138
150
150
150
150
150
150
255
255
255
202
202
202
184
184
184
165
165
165
165
165
165
165
165
165
150
150
150
165
165
165
165
165
165
138
138
138
138
138
138
138
138
138
138
138
138
150
150
150
150
150
150
255
255
255
255
255
255
184
184
184
202
202
202
202
202
202
184
184
184
165
165
165
165
165
165
165
165
165
165
165
165
150
150
150
138
138
138
138
138
138
150
150
150
150
150
150
150
150
150
255
255
255
255
255
255
255
255
255
202
202
202
202
202
202
202
202
202
202
202
202
184
184
184
165
165
165
165
165
165
165
165
165
150
150
150
138
138
138
138
138
138
150
150
150
165
165
165
255
255
255
255
255
255
255
255
255
184
184
184
202
202
202
202
202
202
184
184
184
165
165
165
165
165
165
165
165
165
150
150
150
138
138
138
138
138
138
138
138
138
150
150
150
255
255
255
255
255
255
255
255
255
255
255
255
255
255
255
202
202
202
202
202
202
202
202
202
184
184
184
165
165
165
165
165
165
165
165
165
150
150
150
138
138
138
150
150
150
150
150
150
255
255
255
255
255
255
255
255
255
255
255
255
255
255
255
202
202
202
184
184
184
184
184
184
150
150
150
150
150
150
150
150
150
138
138
138
138
138
138
138
138
138
138
138
138
150
150
150
255
255
255
255
255
255
255
255
255
255
255
255
255
255
255
202
202
202
202
202
202
184
184
184
184
184
184
165
165
165
150
150
150
138
138
138
150
150
150
165
165
165
165
165
165
165
165
165
255
255
255
255
255
255
255
255
255
255
255
255
255
255
255
184
184
184
202
202
202
202
202
202
202
202
202
184
184
184
150
150
150
138
138
138
138
138
138
138
138
138
165
165
165
255
255
255
255
255
255
255
255
255
255
255
255
255
255
255
255
255
255
184
184
184
184
184
184
184
184
184
184
184
184
165
165
165
165
165
165
138
138
138
138
138
138
138
138
138
150
150
150
255
255
255
255
255
255
255
255
255
255
255
255
255
255
255
255
255
255
165
165
165
184
184
184
184
184
184
184
184
184
184
184
184
165
165
165
150
150
150
138
138
138
138
138
138
150
150
150
255
255
255
255
255
255
255
255
255
255
255
255
255
255
255
255
255
255
255
255
255
165
165
165
202
202
202
202
202
202
202
202
202
184
184
184
165
165
165
165
165
165
138
138
138
150
150
150
255
255
255
255
255
255
255
255
255
255
255
255
255
255
255
255
255
255
255
255
255
202
202
202
202
202
202
184
184
184
184
184
184
165
165
165
138
138
138
138
138
138
138
138
138
150
150
150
255
255
255
255
255
255
255
255
255
255
255
255
255
255
255
255
255
255
255
255
255
202
202
202
202
202
202
202
202
202
165
165
165
165
165
165
138
138
138
138
138
138
150
150
150
150
150
150
255
255
255
255
255
255
255
255
255
255
255
255
255
255
255
255
255
255
255
255
255
184
184
184
202
202
202
202
202
202
202
202
202
184
184
184
165
165
165
138
138
138
150
150
150
255
255
255
255
255
255
255
255
255
255
255
255
255
255
255
255
255
255
255
255
255
255
255
255
184
184
184
202
202
202
184
184
184
165
165
165
150
150
150
150
150
150
138
138
138
150
150
150
255
255
255
255
255
255
255
255
255
255
255
255
