P3
# Created by GIMP version 2.10.36 PNM plug-in
16 16
255
40
50
75
50
60
85
50
60
85
35
45
70
40
50
75
40
50
75
45
55
80
35
45
70
45
55
80
45
55
80
35
45
70
40
50
75
45
55
80
45
55
80
50
60
85
0
0
0
50
60
85
7
9
14
10
12
17
8
10
15
10
12
17
7
9
14
7
9
14
9
11
16
9
11
16
8
10
15
8
10
15
9
11
16
9
11
16
8
10
15
9
11
16
0
0
0
40
50
75
8
10
15
7
9
14
10
12
17
9
11
16
9
11
16
7
9
14
10
12
17
7
9
14
8
10
15
7
9
14
7
9
14
9
11
16
9
11
16
7
9
14
0
0
0
45
55
80
8
10
15
9
11
16
45
55
80
35
45
70
40
50
75
45
55
80
45
55
80
45
55
80
45
55
80
50
60
85
45
55
80
0
0
0
9
11
16
9
11
16
0
0
0
35
45
70
8
10
15
8
10
15
45
55
80
9
11
16
10
12
17
9
11
16
8
10
15
10
12
17
7
9
14
10
12
17
7
9
14
0
0
0
7
9
14
8
10
15
0
0
0
50
60
85
10
12
17
8
10
15
40
50
75
7
9
14
7
9
14
8
10
15
8
10
15
9
11
16
8
10
15
9
11
16
9
11
16
0
0
0
10
12
17
8
10
15
0
0
0
35
45
70
9
11
16
10
12
17
35
45
70
7
9
14
8
10
15
0
0
0
0
0
0
0
0
0
0
0
0
7
9
14
7
9
14
0
0
0
9
11
16
7
9
14
0
0
0
35
45
70
10
12
17
9
11
16
35
45
70
9
11
16
9
11
16
0
0
0
8
10
15
9
11
16
35
45
70
7
9
14
9
11
16
0
0
0
7
9
14
9
11
16
0
0
0
40
50
75
9
11
16
9
11
16
50
60
85
10
12
17
8
10
15
0
0
0
9
11
16
9
11
16
35
45
70
9
11
16
10
12
17
0
0
0
9
11
16
9
11
16
0
0
0
35
45
70
9
11
16
7
9
14
35
45
70
8
10
15
7
9
14
0
0
0
45
55
80
40
50
75
40
50
75
10
12
17
8
10
15
0
0
0
8
10
15
7
9
14
0
0
0
45
55
80
9
11
16
9
11
16
40
50
75
9
11
16
9
11
16
8
10
15
10
12
17
9
11
16
7
9
14
8
10
15
8
10
15
0
0
0
9
11
16
8
10
15
0
0
0
35
45
70
8
10
15
9
11
16
45
55
80
10
12
17
10
12
17
9
11
16
7
9
14
9
11
16
8
10
15
8
10
15
7
9
14
0
0
0
8
10
15
9
11
16
0
0
0
35
45
70
8
10
15
9
11
16
0
0
0
0
0
0
0
0
0
0
0
0
0
0
0
0
0
0
0
0
0
0
0
0
0
0
0
0
0
0
10
12
17
10
12
17
0
0
0
45
55
80
7
9
14
8
10
15
8
10
15
7
9
14
9
11
16
8
10
15
9
11
16
7
9
14
9
11
16
8
10
15
7
9
14
7
9
14
7
9
14
8
10
15
0
0
0
45
55
80
7
9
14
8
10
15
8
10
15
9
11
16
7
9
14
9
11
16
9
11
16
7
9
14
9
11
16
10
12
17
10
12
17
7
9
14
9
11
16
10
12
17
0
0
0
0
0
0
0
0
0
0
0
0
0
0
0
0
0
0
0
0
0
0
0
0
0
0
0
0
0
0
0
0
0
0
0
0
0
0
0
0
0
0
0
0
0
0
0
0
0
0
0
