P3
# Created by GIMP version 2.10.36 PNM plug-in
16 16
255
158
158
158
148
148
148
158
158
158
158
158
158
148
148
148
158
158
158
148
148
148
112
112
112
158
158
158
148
148
148
148
148
148
158
158
158
158
158
158
148
148
148
158
158
158
112
112
112
148
148
148
121
121
121
139
139
139
158
158
158
158
158
158
139
139
139
121
121
121
102
102
102
148
148
148
112
112
112
121
121
121
158
158
158
139
139
139
121
121
121
121
121
121
102
102
102
158
158
158
139
139
139
158
158
158
158
158
158
139
139
139
112
112
112
112
112
112
102
102
102
158
158
158
121
121
121
158
158
158
139
139
139
121
121
121
112
112
112
121
121
121
112
112
112
158
158
158
139
139
139
158
158
158
139
139
139
112
112
112
112
112
112
139
139
139
102
102
102
158
158
158
139
139
139
139
139
139
121
121
121
112
112
112
121
121
121
139
139
139
102
102
102
158
158
158
121
121
121
139
139
139
121
121
121
112
112
112
139
139
139
158
158
158
112
112
112
148
148
148
139
139
139
121
121
121
112
112
112
112
112
112
139
139
139
158
158
158
102
102
102
148
148
148
121
121
121
121
121
121
112
112
112
121
121
121
158
158
158
158
158
158
112
112
112
158
158
158
121
121
121
121
121
121
112
112
112
139
139
139
158
158
158
158
158
158
112
112
112
148
148
148
121
121
121
112
112
112
121
121
121
139
139
139
158
158
158
139
139
139
102
102
102
148
148
148
121
121
121
112
112
112
139
139
139
158
158
158
158
158
158
139
139
139
112
112
112
112
112
112
102
102
102
102
102
102
102
102
102
112
112
112
102
102
102
102
102
102
102
102
102
112
112
112
102
102
102
112
112
112
102
102
102
102
102
102
102
102
102
112
112
112
102
102
102
158
158
158
158
158
158
148
148
148
158
158
158
148
148
148
148
148
148
158
158
158
112
112
112
158
158
158
148
148
148
148
148
148
158
158
158
158
158
158
148
148
148
148
148
148
112
112
112
148
148
148
139
139
139
121
121
121
121
121
121
121
121
121
139
139
139
158
158
158
112
112
112
148
148
148
139
139
139
158
158
158
158
158
158
139
139
139
121
121
121
112
112
112
112
112
112
158
158
158
121
121
121
112
112
112
121
121
121
139
139
139
158
158
158
139
139
139
112
112
112
148
148
148
158
158
158
158
158
158
139
139
139
121
121
121
112
112
112
112
112
112
112
112
112
158
158
158
112
112
112
121
121
121
139
139
139
158
158
158
139
139
139
112
112
112
102
102
102
148
148
148
158
158
158
139
139
139
121
121
121
112
112
112
112
112
112
121
121
121
102
102
102
148
148
148
121
121
121
139
139
139
158
158
158
158
158
158
112
112
112
121
121
121
102
102
102
148
148
148
139
139
139
121
121
121
121
121
121
112
112
112
121
121
121
158
158
158
112
112
112
148
148
148
139
139
139
158
158
158
158
158
158
121
121
121
121
121
121
139
139
139
102
102
102
158
158
158
121
121
121
121
121
121
112
112
112
121
121
121
158
158
158
158
158
158
102
102
102
148
148
148
158
158
158
158
158
158
121
121
121
121
121
121
139
139
139
139
139
139
112
112
112
148
148
148
121
121
121
112
112
112
121
121
121
139
139
139
158
158
158
139
139
139
102
102
102
102
102
102
112
112
112
112
112
112
112
112
112
102
102
102
102
102
102
112
112
112
102
102
102
112
112
112
112
112
112
112
112
112
112
112
112
102
102
102
102
102
102
112
112
112
112
112
112
