P3
# Created by GIMP version 2.10.36 PNM plug-in
16 16
255
255
255
255
255
255
255
255
255
255
255
255
255
255
255
255
255
255
255
255
255
255
255
255
255
68
68
68
255
255
255
255
255
255
255
255
255
255
255
255
255
255
255
255
255
255
255
255
255
255
255
255
255
255
255
255
255
255
255
255
255
255
255
255
255
255
255
255
255
255
68
68
68
255
255
255
68
68
68
255
255
255
255
255
255
255
255
255
255
255
255
255
255
255
255
255
255
255
255
255
255
255
255
255
255
255
255
255
255
255
255
255
255
255
255
68
68
68
255
255
255
255
255
255
216
216
216
68
68
68
73
54
21
255
255
255
255
255
255
255
255
255
255
255
255
255
255
255
255
255
255
255
255
255
255
255
255
255
255
255
68
68
68
255
255
255
255
255
255
255
255
255
255
255
255
193
193
193
68
68
68
104
78
30
255
255
255
255
255
255
255
255
255
255
255
255
255
255
255
255
255
255
255
255
255
255
255
255
255
255
255
68
68
68
216
216
216
255
255
255
255
255
255
255
255
255
193
193
193
68
68
68
40
30
11
255
255
255
255
255
255
255
255
255
255
255
255
255
255
255
255
255
255
255
255
255
255
255
255
255
255
255
68
68
68
255
255
255
255
255
255
255
255
255
255
255
255
193
193
193
68
68
68
255
255
255
255
255
255
255
255
255
255
255
255
255
255
255
255
255
255
255
255
255
255
255
255
255
255
255
255
255
255
73
54
21
255
255
255
255
255
255
255
255
255
255
255
255
216
216
216
68
68
68
255
255
255
255
255
255
255
255
255
255
255
255
255
255
255
255
255
255
255
255
255
255
255
255
73
54
21
137
103
39
40
30
11
255
255
255
255
255
255
255
255
255
255
255
255
255
255
255
68
68
68
255
255
255
255
255
255
255
255
255
255
255
255
255
255
255
255
255
255
73
54
21
104
78
30
40
30
11
255
255
255
68
68
68
216
216
216
255
255
255
255
255
255
68
68
68
255
255
255
255
255
255
255
255
255
255
255
255
255
255
255
255
255
255
73
54
21
137
103
39
40
30
11
255
255
255
255
255
255
255
255
255
68
68
68
255
255
255
68
68
68
255
255
255
255
255
255
255
255
255
255
255
255
255
255
255
255
255
255
73
54
21
104
78
30
40
30
11
255
255
255
255
255
255
255
255
255
255
255
255
255
255
255
68
68
68
255
255
255
255
255
255
255
255
255
255
255
255
255
255
255
255
255
255
73
54
21
137
103
39
40
30
11
255
255
255
255
255
255
255
255
255
255
255
255
255
255
255
255
255
255
255
255
255
255
255
255
255
255
255
255
255
255
255
255
255
255
255
255
73
54
21
104
78
30
40
30
11
255
255
255
255
255
255
255
255
255
255
255
255
255
255
255
255
255
255
255
255
255
255
255
255
255
255
255
255
255
255
255
255
255
255
255
255
73
54
21
137
103
39
40
30
11
255
255
255
255
255
255
255
255
255
255
255
255
255
255
255
255
255
255
255
255
255
255
255
255
255
255
255
255
255
255
255
255
255
255
255
255
255
255
255
104
78
30
40
30
11
255
255
255
255
255
255
255
255
255
255
255
255
255
255
255
255
255
255
255
255
255
255
255
255
255
255
255
255
255
255
255
255
255
255
255
255
255
255
255
255
255
255
255
255
255
255
255
255
255
255
255
255
255
255
255
255
255
255
255
255
255
255
255
255
255
255
255
255
255
255
255
255
255
255
255
255
255
255
255
255
255
255
255
255
255
255
255
