P3
# Created by GIMP version 2.10.36 PNM plug-in
16 16
255
130
130
130
155
155
155
157
157
157
79
79
79
86
86
86
128
128
128
143
143
143
86
86
86
93
93
93
129
129
129
155
155
155
173
173
173
165
165
165
146
146
146
89
89
89
79
79
79
118
118
118
157
157
157
86
86
86
83
83
83
120
120
120
152
152
152
86
86
86
121
121
121
79
79
79
114
114
114
113
113
113
157
157
157
156
156
156
92
92
92
128
128
128
128
128
128
157
157
157
95
95
95
133
133
133
128
128
128
128
128
128
173
173
173
86
86
86
109
109
109
128
128
128
128
128
128
122
122
122
169
169
169
155
155
155
157
157
157
104
104
104
124
124
124
157
157
157
157
157
157
100
100
100
130
130
130
142
142
142
169
169
169
128
128
128
126
126
126
112
112
112
128
128
128
169
169
169
167
167
167
90
90
90
157
157
157
157
157
157
172
172
172
102
102
102
86
86
86
169
169
169
169
169
169
169
169
169
169
169
169
151
151
151
128
128
128
175
175
175
170
170
170
86
86
86
101
101
101
128
128
128
128
128
128
157
157
157
144
144
144
80
80
80
131
131
131
141
141
141
81
81
81
93
93
93
82
82
82
157
157
157
169
169
169
151
151
151
64
64
64
97
97
97
128
128
128
112
112
112
128
128
128
120
120
120
151
151
151
136
136
136
120
120
120
161
161
161
99
99
99
125
125
125
133
133
133
129
129
129
157
157
157
157
157
157
157
157
157
128
128
128
114
114
114
119
119
119
110
110
110
161
161
161
165
165
165
134
134
134
136
136
136
139
139
139
169
169
169
178
178
178
179
179
179
169
169
169
118
118
118
88
88
88
126
126
126
162
162
162
156
156
156
141
141
141
172
172
172
162
162
162
152
152
152
157
157
157
86
86
86
86
86
86
86
86
86
126
126
126
162
162
162
83
83
83
105
105
105
86
86
86
86
86
86
111
111
111
147
147
147
100
100
100
115
115
115
154
154
154
157
157
157
157
157
157
128
128
128
120
120
120
128
128
128
114
114
114
175
175
175
153
153
153
141
141
141
86
86
86
86
86
86
147
147
147
128
128
128
177
177
177
157
157
157
86
86
86
86
86
86
173
173
173
164
164
164
118
118
118
128
128
128
175
175
175
157
157
157
157
157
157
150
150
150
165
165
165
128
128
128
128
128
128
175
175
175
158
158
158
86
86
86
86
86
86
125
125
125
169
169
169
158
158
158
169
169
169
165
165
165
157
157
157
93
93
93
81
81
81
125
125
125
140
140
140
174
174
174
157
157
157
157
157
157
80
80
80
122
122
122
110
110
110
128
128
128
157
157
157
97
97
97
102
102
102
104
104
104
166
166
166
130
130
130
92
92
92
112
112
112
84
84
84
86
86
86
157
157
157
157
157
157
86
86
86
123
123
123
123
123
123
165
165
165
93
93
93
89
89
89
113
113
113
120
120
120
151
151
151
158
158
158
175
175
175
153
153
153
139
139
139
123
123
123
130
130
130
157
157
157
133
133
133
119
119
119
128
128
128
169
169
169
153
153
153
115
115
115
93
93
93
128
128
128
139
139
139
128
128
128
129
129
129
162
162
162
160
160
160
163
163
163
128
128
128
157
157
157
147
147
147
169
169
169
169
169
169
154
154
154
121
121
121
171
171
171
136
136
136
120
120
120
128
128
128
169
169
169
152
152
152
92
92
92
128
128
128
128
128
128
175
175
175
150
150
150
92
92
92
86
86
86
157
157
157
126
126
126
