P3
# Created by GIMP version 2.10.36 PNM plug-in
16 16
255
121
123
125
143
145
147
145
146
149
81
83
84
86
88
89
119
121
123
132
134
136
86
88
89
92
93
94
120
122
124
143
145
147
159
161
163
152
154
156
135
137
139
89
90
91
81
83
84
111
113
115
145
146
149
86
88
89
84
86
87
113
114
116
140
142
144
86
88
89
114
115
117
81
83
84
108
110
111
107
109
110
145
146
149
144
146
148
91
92
93
119
121
123
119
121
123
145
146
149
93
95
96
124
125
127
119
121
123
119
121
123
159
161
163
86
88
89
104
105
107
119
121
123
119
121
123
114
116
118
155
157
160
143
145
147
145
146
149
100
101
103
116
118
120
145
146
149
145
146
149
97
98
100
121
123
125
131
133
135
155
157
160
119
121
123
118
119
121
106
108
109
119
121
123
155
157
160
154
155
158
89
91
92
145
146
149
145
146
149
158
160
162
98
100
101
86
88
89
155
157
160
155
157
160
155
157
160
155
157
160
139
141
143
119
121
123
161
163
165
156
158
161
86
88
89
98
99
101
119
121
123
119
121
123
145
146
149
133
135
137
82
84
84
122
124
126
131
132
134
83
84
85
92
93
94
84
85
86
145
146
149
155
157
160
139
141
143
71
73
73
95
96
97
119
121
123
106
108
109
119
121
123
113
114
116
139
141
143
126
128
130
113
114
116
148
150
152
96
98
99
117
119
120
124
125
127
120
122
124
145
146
149
145
146
149
145
146
149
119
121
123
108
110
111
112
114
115
105
106
108
148
150
152
152
154
156
125
126
128
126
128
130
129
131
133
155
157
160
164
165
168
165
166
169
155
157
160
111
113
115
88
89
90
118
119
121
149
151
153
144
146
148
131
132
134
158
160
162
149
151
153
140
142
144
145
146
149
86
88
89
86
88
89
86
88
89
118
119
121
149
151
153
84
86
87
101
102
104
86
88
89
86
88
89
105
107
109
136
138
140
97
98
100
109
110
112
142
144
146
145
146
149
145
146
149
119
121
123
113
114
116
119
121
123
108
110
111
161
163
165
141
143
145
131
132
134
86
88
89
86
88
89
136
138
140
119
121
123
163
165
167
145
146
149
86
88
89
86
88
89
159
161
163
151
153
155
111
113
115
119
121
123
161
163
165
145
146
149
145
146
149
138
140
142
152
154
156
119
121
123
119
121
123
161
163
165
146
147
150
86
88
89
86
88
89
117
119
120
155
157
160
146
147
150
155
157
160
152
154
156
145
146
149
92
93
94
83
84
85
117
119
120
130
131
134
160
162
164
145
146
149
145
146
149
82
84
84
114
116
118
105
106
108
119
121
123
145
146
149
95
96
97
98
100
101
100
101
103
153
155
157
121
123
125
91
92
93
106
108
109
85
86
87
86
88
89
145
146
149
145
146
149
86
88
89
115
117
119
115
117
119
152
154
156
92
93
94
89
90
91
107
109
110
113
114
116
139
141
143
146
147
150
161
163
165
141
143
145
129
131
133
115
117
119
121
123
125
145
146
149
124
125
127
112
114
115
119
121
123
155
157
160
141
143
145
109
110
112
92
93
94
119
121
123
129
131
133
119
121
123
120
122
124
149
151
153
147
149
151
150
152
154
119
121
123
145
146
149
136
138
140
155
157
160
155
157
160
142
144
146
114
115
117
157
159
161
126
128
130
113
114
116
119
121
123
155
157
160
140
142
144
91
92
93
119
121
123
119
121
123
161
163
165
138
140
142
91
92
93
86
88
89
145
146
149
118
119
121
