P3
# Created by GIMP version 2.10.36 PNM plug-in
16 16
255
87
87
87
107
107
107
123
123
123
107
107
107
107
107
107
87
87
87
107
107
107
166
166
166
217
217
217
217
217
217
143
143
143
123
123
123
87
87
87
107
107
107
123
123
123
77
77
77
107
107
107
123
123
123
143
143
143
123
123
123
87
87
87
107
107
107
123
123
123
107
107
107
123
123
123
143
143
143
77
77
77
77
77
77
107
107
107
123
123
123
123
123
123
87
87
87
87
87
87
123
123
123
107
107
107
87
87
87
87
87
87
123
123
123
143
143
143
107
107
107
87
87
87
143
143
143
77
77
77
87
87
87
143
143
143
107
107
107
107
107
107
87
87
87
87
87
87
107
107
107
123
123
123
87
87
87
77
77
77
77
77
77
107
107
107
87
87
87
87
87
87
107
107
107
87
87
87
143
143
143
166
166
166
123
123
123
107
107
107
107
107
107
107
107
107
123
123
123
166
166
166
107
107
107
77
77
77
87
87
87
87
87
87
87
87
87
107
107
107
123
123
123
87
87
87
107
107
107
123
123
123
87
87
87
77
77
77
107
107
107
123
123
123
143
143
143
217
217
217
123
123
123
107
107
107
87
87
87
107
107
107
107
107
107
143
143
143
166
166
166
123
123
123
107
107
107
107
107
107
77
77
77
87
87
87
87
87
87
166
166
166
217
217
217
217
217
217
143
143
143
143
143
143
107
107
107
107
107
107
87
87
87
107
107
107
123
123
123
87
87
87
107
107
107
87
87
87
87
87
87
87
87
87
123
123
123
107
107
107
123
123
123
143
143
143
87
87
87
87
87
87
107
107
107
143
143
143
107
107
107
123
123
123
107
107
107
107
107
107
123
123
123
107
107
107
87
87
87
123
123
123
87
87
87
87
87
87
107
107
107
143
143
143
87
87
87
123
123
123
143
143
143
166
166
166
123
123
123
107
107
107
87
87
87
87
87
87
107
107
107
87
87
87
123
123
123
143
143
143
87
87
87
107
107
107
107
107
107
107
107
107
123
123
123
143
143
143
107
107
107
123
123
123
87
87
87
77
77
77
77
77
77
107
107
107
123
123
123
107
107
107
143
143
143
166
166
166
123
123
123
107
107
107
107
107
107
123
123
123
143
143
143
166
166
166
123
123
123
107
107
107
77
77
77
87
87
87
107
107
107
123
123
123
143
143
143
123
123
123
107
107
107
123
123
123
87
87
87
107
107
107
123
123
123
143
143
143
143
143
143
166
166
166
143
143
143
123
123
123
87
87
87
107
107
107
123
123
123
143
143
143
166
166
166
143
143
143
123
123
123
107
107
107
87
87
87
87
87
87
143
143
143
166
166
166
217
217
217
217
217
217
143
143
143
143
143
143
107
107
107
87
87
87
87
87
87
107
107
107
143
143
143
77
77
77
87
87
87
143
143
143
107
107
107
87
87
87
107
107
107
123
123
123
123
123
123
166
166
166
77
77
77
87
87
87
87
87
87
77
77
77
107
107
107
107
107
107
107
107
107
87
87
87
107
107
107
166
166
166
123
123
123
107
107
107
87
87
87
107
107
107
123
123
123
143
143
143
87
87
87
107
107
107
87
87
87
107
107
107
166
166
166
107
107
107
87
87
87
107
107
107
166
166
166
217
217
217
143
143
143
77
77
77
87
87
87
87
87
87
107
107
107
123
123
123
107
107
107
107
107
107
107
107
107
166
166
166
217
217
217
123
123
123
107
107
107
77
77
77
107
107
107
166
166
166
77
77
77
