P3
# Created by GIMP version 2.10.36 PNM plug-in
16 16
255
158
158
158
158
158
158
158
158
158
148
148
148
158
158
158
148
148
148
148
148
148
158
158
158
158
158
158
158
158
158
158
158
158
158
158
158
148
148
148
139
139
139
132
132
132
112
112
112
158
158
158
139
139
139
139
139
139
132
132
132
132
132
132
139
139
139
139
139
139
148
148
148
158
158
158
148
148
148
148
148
148
148
148
148
132
132
132
132
132
132
121
121
121
102
102
102
158
158
158
139
139
139
158
158
158
121
121
121
139
139
139
139
139
139
148
148
148
158
158
158
148
148
148
148
148
148
148
148
148
132
132
132
158
158
158
121
121
121
121
121
121
102
102
102
158
158
158
132
132
132
121
121
121
102
102
102
139
139
139
148
148
148
158
158
158
148
148
148
139
139
139
148
148
148
132
132
132
132
132
132
121
121
121
102
102
102
121
121
121
94
94
94
158
158
158
132
132
132
139
139
139
139
139
139
148
148
148
148
148
148
148
148
148
139
139
139
139
139
139
132
132
132
132
132
132
112
112
112
112
112
112
121
121
121
132
132
132
94
94
94
158
158
158
139
139
139
139
139
139
148
148
148
148
148
148
148
148
148
139
139
139
139
139
139
132
132
132
132
132
132
112
112
112
102
102
102
112
112
112
132
132
132
121
121
121
94
94
94
158
158
158
139
139
139
148
148
148
158
158
158
148
148
148
139
139
139
139
139
139
132
132
132
132
132
132
112
112
112
102
102
102
112
112
112
132
132
132
121
121
121
121
121
121
94
94
94
158
158
158
148
148
148
158
158
158
148
148
148
139
139
139
139
139
139
132
132
132
132
132
132
112
112
112
102
102
102
112
112
112
132
132
132
132
132
132
121
121
121
139
139
139
94
94
94
158
158
158
158
158
158
148
148
148
139
139
139
139
139
139
132
132
132
121
121
121
112
112
112
102
102
102
112
112
112
132
132
132
132
132
132
121
121
121
139
139
139
139
139
139
94
94
94
158
158
158
148
148
148
139
139
139
139
139
139
132
132
132
121
121
121
121
121
121
112
112
112
112
112
112
132
132
132
132
132
132
132
132
132
139
139
139
139
139
139
148
148
148
102
102
102
158
158
158
139
139
139
139
139
139
132
132
132
121
121
121
121
121
121
112
112
112
121
121
121
132
132
132
132
132
132
132
132
132
139
139
139
139
139
139
148
148
148
158
158
158
102
102
102
158
158
158
139
139
139
132
132
132
121
121
121
121
121
121
121
121
121
121
121
121
132
132
132
132
132
132
121
121
121
139
139
139
139
139
139
148
148
148
158
158
158
148
148
148
102
102
102
158
158
158
132
132
132
158
158
158
121
121
121
112
112
112
121
121
121
132
132
132
132
132
132
121
121
121
139
139
139
139
139
139
148
148
148
158
158
158
121
121
121
139
139
139
94
94
94
158
158
158
121
121
121
121
121
121
102
102
102
121
121
121
132
132
132
121
121
121
121
121
121
139
139
139
139
139
139
148
148
148
148
148
148
121
121
121
102
102
102
132
132
132
94
94
94
158
158
158
112
112
112
102
102
102
121
121
121
132
132
132
121
121
121
121
121
121
139
139
139
139
139
139
148
148
148
148
148
148
148
148
148
139
139
139
132
132
132
132
132
132
102
102
102
148
148
148
102
102
102
112
112
112
102
102
102
102
102
102
94
94
94
102
102
102
94
94
94
112
112
112
112
112
112
112
112
112
102
102
102
102
102
102
94
94
94
102
102
102
102
102
102
