P3
# Created by GIMP version 2.10.30 PNM plug-in
16 16
255
160
160
160
120
120
120
120
120
120
120
120
120
141
141
141
85
85
85
70
70
70
104
104
104
110
110
110
134
134
134
131
131
131
120
120
120
84
84
84
120
120
120
120
120
120
131
131
131
131
131
131
131
131
131
74
74
74
95
95
95
95
95
95
200
200
200
174
174
174
174
174
174
79
79
79
95
95
95
146
146
146
74
74
74
96
96
96
131
131
131
150
150
150
120
120
120
66
66
66
72
72
72
79
79
79
174
174
174
163
163
163
120
120
120
160
160
160
120
120
120
146
146
146
120
120
120
85
85
85
131
131
131
85
85
85
146
146
146
116
116
116
131
131
131
185
185
185
200
200
200
102
102
102
72
72
72
131
131
131
160
160
160
131
131
131
74
74
74
131
131
131
102
102
102
92
92
92
120
120
120
120
120
120
111
111
111
79
79
79
85
85
85
131
131
131
146
146
146
160
160
160
120
120
120
97
97
97
120
120
120
120
120
120
120
120
120
120
120
120
160
160
160
146
146
146
95
95
95
104
104
104
124
124
124
200
200
200
163
163
163
120
120
120
120
120
120
131
131
131
131
131
131
85
85
85
120
120
120
171
171
171
120
120
120
131
131
131
110
110
110
85
85
85
185
185
185
120
120
120
104
104
104
110
110
110
131
131
131
146
146
146
146
146
146
131
131
131
74
74
74
160
160
160
79
79
79
95
95
95
146
146
146
85
85
85
85
85
85
185
185
185
74
74
74
146
146
146
146
146
146
95
95
95
72
72
72
104
104
104
131
131
131
131
131
131
79
79
79
79
79
79
205
205
205
174
174
174
92
92
92
174
174
174
163
163
163
120
120
120
160
160
160
120
120
120
120
120
120
185
185
185
131
131
131
131
131
131
104
104
104
95
95
95
220
220
220
200
200
200
120
120
120
131
131
131
74
74
74
85
85
85
95
95
95
95
95
95
146
146
146
160
160
160
74
74
74
146
146
146
146
146
146
160
160
160
174
174
174
120
120
120
62
62
62
79
79
79
120
120
120
120
120
120
85
85
85
163
163
163
213
213
213
102
102
102
79
79
79
120
120
120
120
120
120
146
146
146
160
160
160
131
131
131
102
102
102
146
146
146
120
120
120
120
120
120
70
70
70
95
95
95
79
79
79
110
110
110
120
120
120
146
146
146
104
104
104
146
146
146
131
131
131
102
102
102
131
131
131
110
110
110
131
131
131
104
104
104
85
85
85
62
62
62
185
185
185
185
185
185
131
131
131
95
95
95
146
146
146
131
131
131
131
131
131
48
48
48
95
95
95
95
95
95
110
110
110
85
85
85
62
62
62
174
174
174
174
174
174
160
160
160
120
120
120
120
120
120
120
120
120
95
95
95
160
160
160
120
120
120
79
79
79
174
174
174
174
174
174
120
120
120
85
85
85
185
185
185
146
146
146
75
75
75
146
146
146
74
74
74
146
146
146
131
131
131
141
141
141
120
120
120
79
79
79
59
59
59
174
174
174
131
131
131
131
131
131
104
104
104
200
200
200
131
131
131
131
131
131
150
150
150
79
79
79
79
79
79
79
79
79
160
160
160
79
79
79
48
48
48
185
185
185
200
200
200
146
146
146
131
131
131
92
92
92
174
174
174
131
131
131
74
74
74
120
120
120
120
120
120
96
96
96
110
110
110
146
146
146
95
95
95
185
185
185
185
185
185
131
131
131
160
160
160
120
120
120
96
96
96
79
79
79
131
131
131
131
131
131
