P3
# Created by GIMP version 2.10.36 PNM plug-in
16 16
255
72
72
72
74
74
74
67
67
67
68
68
68
69
69
69
65
65
65
64
64
64
62
62
62
67
67
67
69
69
69
70
70
70
74
74
74
74
74
74
75
75
75
79
79
79
83
83
83
73
73
73
73
73
73
58
58
58
67
67
67
61
61
61
55
55
55
57
57
57
58
58
58
61
61
61
77
77
77
80
80
80
73
73
73
68
68
68
79
79
79
91
91
91
81
81
81
40
40
40
41
41
41
38
38
38
41
41
41
42
42
42
41
41
41
41
41
41
41
41
41
41
41
41
45
45
45
44
44
44
42
42
42
46
46
46
44
44
44
43
43
43
39
39
39
31
31
31
36
36
36
35
35
35
37
37
37
37
37
37
38
38
38
38
38
38
36
36
36
38
38
38
41
41
41
39
39
39
37
37
37
39
39
39
36
36
36
34
34
34
33
33
33
36
36
36
37
37
37
38
38
38
38
38
38
38
38
38
39
39
39
35
35
35
32
32
32
33
33
33
37
37
37
33
33
33
36
36
36
37
37
37
34
34
34
33
33
33
36
36
36
49
49
49
46
46
46
46
46
46
45
45
45
45
45
45
47
47
47
47
47
47
49
49
49
45
45
45
45
45
45
45
45
45
45
45
45
44
44
44
43
43
43
44
44
44
49
49
49
62
62
62
54
54
54
53
53
53
48
48
48
56
56
56
80
80
80
74
74
74
59
59
59
43
43
43
46
46
46
52
52
52
47
47
47
70
70
70
75
75
75
70
70
70
87
87
87
34
34
34
33
33
33
34
34
34
36
36
36
36
36
36
30
30
30
30
30
30
32
32
32
27
27
27
30
30
30
34
34
34
32
32
32
32
32
32
36
36
36
36
36
36
33
33
33
31
31
31
31
31
31
33
33
33
30
30
30
30
30
30
29
29
29
29
29
29
29
29
29
32
32
32
34
34
34
32
32
32
36
36
36
32
32
32
29
29
29
29
29
29
29
29
29
63
63
63
56
56
56
52
52
52
51
51
51
47
47
47
48
48
48
59
59
59
54
54
54
51
51
51
56
56
56
48
48
48
41
41
41
40
40
40
50
50
50
62
62
62
63
63
63
53
53
53
53
53
53
52
52
52
50
50
50
50
50
50
51
51
51
50
50
50
50
50
50
49
49
49
50
50
50
46
46
46
48
48
48
51
51
51
53
53
53
52
52
52
53
53
53
37
37
37
38
38
38
37
37
37
37
37
37
37
37
37
37
37
37
34
34
34
33
33
33
36
36
36
39
39
39
35
35
35
37
37
37
39
39
39
39
39
39
37
37
37
36
36
36
36
36
36
37
37
37
33
33
33
36
36
36
37
37
37
34
34
34
31
31
31
32
32
32
38
38
38
40
40
40
37
37
37
36
36
36
39
39
39
38
38
38
34
34
34
35
35
35
45
45
45
42
42
42
40
40
40
41
41
41
43
43
43
42
42
42
43
43
43
46
46
46
45
45
45
41
41
41
40
40
40
42
42
42
46
46
46
44
44
44
45
45
45
42
42
42
66
66
66
69
69
69
57
57
57
61
61
61
64
64
64
54
54
54
62
62
62
76
76
76
68
68
68
65
65
65
61
61
61
64
64
64
69
69
69
67
67
67
64
64
64
55
55
55
74
74
74
83
83
83
71
71
71
78
78
78
88
88
88
73
73
73
71
71
71
94
94
94
89
89
89
80
80
80
82
82
82
90
90
90
87
87
87
77
77
77
78
78
78
68
68
68
