P3
# Created by GIMP version 2.10.36 PNM plug-in
16 16
255
193
193
193
144
144
144
166
166
166
116
116
116
144
144
144
116
116
116
193
193
193
193
193
193
166
166
166
193
193
193
116
116
116
144
144
144
116
116
116
166
166
166
166
166
166
193
193
193
166
166
166
166
166
166
166
166
166
116
116
116
116
116
116
99
99
99
193
193
193
166
166
166
144
144
144
166
166
166
99
99
99
166
166
166
144
144
144
99
99
99
99
99
99
166
166
166
99
99
99
116
116
116
99
99
99
166
166
166
99
99
99
193
193
193
166
166
166
193
193
193
166
166
166
99
99
99
99
99
99
116
116
116
116
116
116
99
99
99
116
116
116
99
99
99
166
166
166
99
99
99
166
166
166
193
193
193
193
193
193
144
144
144
193
193
193
193
193
193
166
166
166
99
99
99
116
116
116
99
99
99
144
144
144
166
166
166
166
166
166
193
193
193
193
193
193
99
99
99
166
166
166
144
144
144
166
166
166
193
193
193
166
166
166
166
166
166
99
99
99
116
116
116
99
99
99
166
166
166
193
193
193
193
193
193
193
193
193
144
144
144
99
99
99
116
116
116
99
99
99
166
166
166
166
166
166
116
116
116
166
166
166
99
99
99
116
116
116
116
116
116
166
166
166
193
193
193
193
193
193
144
144
144
166
166
166
193
193
193
116
116
116
166
166
166
166
166
166
99
99
99
116
116
116
166
166
166
99
99
99
116
116
116
144
144
144
116
116
116
166
166
166
193
193
193
166
166
166
193
193
193
193
193
193
99
99
99
99
99
99
144
144
144
193
193
193
166
166
166
99
99
99
99
99
99
116
116
116
144
144
144
166
166
166
116
116
116
193
193
193
144
144
144
166
166
166
166
166
166
99
99
99
116
116
116
116
116
116
99
99
99
193
193
193
193
193
193
166
166
166
99
99
99
99
99
99
116
116
116
144
144
144
99
99
99
99
99
99
116
116
116
116
116
116
99
99
99
116
116
116
166
166
166
116
116
116
99
99
99
144
144
144
166
166
166
193
193
193
166
166
166
116
116
116
99
99
99
99
99
99
144
144
144
166
166
166
193
193
193
166
166
166
99
99
99
116
116
116
144
144
144
99
99
99
144
144
144
166
166
166
193
193
193
193
193
193
144
144
144
193
193
193
99
99
99
116
116
116
166
166
166
193
193
193
193
193
193
193
193
193
144
144
144
99
99
99
116
116
116
116
116
116
99
99
99
116
116
116
99
99
99
166
166
166
193
193
193
166
166
166
116
116
116
144
144
144
116
116
116
166
166
166
144
144
144
193
193
193
166
166
166
166
166
166
99
99
99
166
166
166
116
116
116
99
99
99
144
144
144
116
116
116
193
193
193
166
166
166
116
116
116
144
144
144
166
166
166
116
116
116
193
193
193
166
166
166
193
193
193
166
166
166
166
166
166
193
193
193
166
166
166
99
99
99
166
166
166
144
144
144
99
99
99
193
193
193
99
99
99
116
116
116
144
144
144
116
116
116
166
166
166
193
193
193
166
166
166
193
193
193
144
144
144
193
193
193
193
193
193
99
99
99
116
116
116
144
144
144
116
116
116
99
99
99
116
116
116
99
99
99
116
116
116
99
99
99
166
166
166
193
193
193
144
144
144
193
193
193
166
166
166
166
166
166
193
193
193
166
166
166
99
99
99
116
116
116
116
116
116
99
99
99
144
144
144
193
193
193
166
166
166
99
99
99
99
99
99
166
166
166
166
166
166
193
193
193
193
193
193
