P3
# Created by GIMP version 2.10.36 PNM plug-in
16 16
255
23
23
23
23
23
23
23
23
23
21
21
21
24
24
24
24
24
24
21
21
21
24
24
24
23
23
23
24
24
24
21
21
21
23
23
23
21
21
21
20
20
20
24
24
24
28
28
28
24
24
24
17
17
17
17
17
17
23
23
23
24
24
24
24
24
24
24
24
24
21
21
21
21
21
21
28
28
28
21
21
21
21
21
21
32
32
32
32
32
32
23
23
23
23
23
23
24
24
24
28
28
28
24
24
24
16
16
16
17
17
17
21
21
21
24
24
24
24
24
24
28
28
28
17
17
17
24
24
24
28
28
28
24
24
24
24
24
24
21
21
21
24
24
24
23
23
23
23
23
23
21
21
21
24
24
24
24
24
24
24
24
24
23
23
23
16
16
16
17
17
17
28
28
28
21
21
21
24
24
24
23
23
23
24
24
24
24
24
24
24
24
24
21
21
21
21
21
21
28
28
28
24
24
24
24
24
24
16
16
16
16
16
16
28
28
28
30
30
30
23
23
23
24
24
24
24
24
24
28
28
28
24
24
24
17
17
17
21
21
21
32
32
32
28
28
28
21
21
21
24
24
24
17
17
17
24
24
24
28
28
28
24
24
24
24
24
24
24
24
24
23
23
23
24
24
24
14
14
14
16
16
16
28
28
28
28
28
28
23
23
23
21
21
21
24
24
24
21
21
21
28
28
28
24
24
24
24
24
24
24
24
24
28
28
28
28
28
28
17
17
17
17
17
17
28
28
28
28
28
28
23
23
23
24
24
24
24
24
24
24
24
24
24
24
24
21
21
21
24
24
24
24
24
24
24
24
24
17
17
17
17
17
17
17
17
17
24
24
24
23
23
23
23
23
23
21
21
21
24
24
24
24
24
24
21
21
21
23
23
23
28
28
28
24
24
24
21
21
21
23
23
23
20
20
20
28
28
28
28
28
28
24
24
24
23
23
23
21
21
21
24
24
24
23
23
23
17
17
17
21
21
21
28
28
28
17
17
17
21
21
21
21
21
21
28
28
28
30
30
30
28
28
28
23
23
23
24
24
24
24
24
24
28
28
28
24
24
24
17
17
17
17
17
17
24
24
24
28
28
28
24
24
24
24
24
24
16
16
16
17
17
17
23
23
23
23
23
23
24
24
24
23
23
23
21
21
21
21
21
21
24
24
24
17
17
17
24
24
24
23
23
23
28
28
28
24
24
24
21
21
21
30
30
30
23
23
23
24
24
24
16
16
16
16
16
16
21
21
21
28
28
28
24
24
24
17
17
17
16
16
16
24
24
24
28
28
28
24
24
24
21
21
21
24
24
24
28
28
28
20
20
20
28
28
28
28
28
28
24
24
24
24
24
24
16
16
16
23
23
23
23
23
23
28
28
28
24
24
24
23
23
23
24
24
24
24
24
24
28
28
28
21
21
21
30
30
30
24
24
24
20
20
20
24
24
24
24
24
24
24
24
24
23
23
23
17
17
17
20
20
20
24
24
24
23
23
23
24
24
24
16
16
16
17
17
17
23
23
23
20
20
20
24
24
24
23
23
23
23
23
23
23
23
23
21
21
21
21
21
21
17
17
17
28
28
28
32
32
32
24
24
24
17
17
17
16
16
16
28
28
28
30
30
30
21
21
21
28
28
28
24
24
24
24
24
24
21
21
21
30
30
30
28
28
28
21
21
21
28
28
28
24
24
24
24
24
24
28
28
28
30
30
30
24
24
24
23
23
23
23
23
23
20
20
20
23
23
23
